<?xml version="1.0" encoding="UTF-8"?>
<svg xmlns="http://www.w3.org/2000/svg" viewBox="0 0 500 500">
  <defs>
    <style>
      .cls-1 {
        opacity: .25;
      }

      .cls-1, .cls-2 {
        fill: #fff;
        mix-blend-mode: overlay;
      }

      .cls-3, .cls-4, .cls-5 {
        fill: #93278f;
      }

      .cls-3, .cls-4, .cls-6 {
        mix-blend-mode: multiply;
      }

      .cls-3, .cls-6 {
        opacity: .35;
      }

      .cls-2 {
        opacity: .26;
      }

      .cls-7 {
        stroke-width: 2.55px;
      }

      .cls-7, .cls-8, .cls-9, .cls-6, .cls-10 {
        fill: none;
      }

      .cls-7, .cls-8, .cls-10 {
        stroke: #000;
        stroke-miterlimit: 10;
      }

      .cls-8 {
        stroke-width: 2.04px;
      }

      .cls-9 {
        isolation: isolate;
      }

      .cls-4 {
        opacity: .2;
      }

      .cls-11 {
        fill: #ffc033;
      }

      .cls-10 {
        stroke-width: 1.07px;
      }
    </style>
  </defs>
  <g class="cls-9">
    <g id="Layer_1" data-name="Layer 1">
      <g>
        <circle class="cls-11" cx="250" cy="250" r="173.34" transform="translate(-103.55 250) rotate(-45)"/>
        <path class="cls-3" d="m250,423.3c-95.56,0-173.29-77.74-173.29-173.3S154.44,76.71,250,76.71s173.29,77.74,173.29,173.29-77.74,173.3-173.29,173.3Zm0-341.56c-92.78,0-168.26,75.48-168.26,168.26s75.48,168.26,168.26,168.26,168.26-75.48,168.26-168.26-75.48-168.26-168.26-168.26Z"/>
        <g>
          <path class="cls-11" d="m250,32.52c-120.11,0-217.48,97.37-217.48,217.48s97.37,217.48,217.48,217.48,217.48-97.37,217.48-217.48S370.11,32.52,250,32.52Zm0,390.82c-95.73,0-173.34-77.61-173.34-173.34S154.27,76.66,250,76.66s173.34,77.61,173.34,173.34-77.61,173.34-173.34,173.34Z"/>
          <circle class="cls-8" cx="250" cy="250" r="173.34"/>
          <circle class="cls-7" cx="250" cy="250" r="217.5"/>
          <g>
            <path class="cls-4" d="m466.78,263.33c-4.77,76.81-49.42,145.12-117.7,180.19-19.2,9.86-39.35,16.88-60.5,20.56-2.47.44-4.98.82-7.48,1.16-17.79,2.41-35.16,2.89-52.05,1.38-31.19-2.74-60.77-12.19-88.63-28.58,21.94,10.08,44.89,16.11,68.76,18.21,16.89,1.51,34.26,1.02,52.05-1.38,2.5-.35,5-.72,7.48-1.16,21.15-3.68,41.29-10.7,60.5-20.56,68.28-35.07,112.93-103.38,117.7-180.19,1.34-21.66-.07-43.2-5.67-64.17-16.29-61.08-49.64-106.3-99.87-135.62,61.38,28.49,101.39,77.18,119.74,145.99,5.6,20.97,7.01,42.51,5.67,64.17Z"/>
            <path class="cls-1" d="m148.83,76.24c-3.01-2.83-6.3-1.27-9.41.39-3.04,1.63-6,3.43-8.91,5.32-14.69,7.06-27.01,18.34-37.81,30.69-14.74,16.86-27.9,35.52-35.8,56.61-4.2,11.22-6.32,22.91-7.8,34.76-1.5,11.99-3.49,24.46-1.91,36.54.59,4.53,1.39,9.5,5.1,12.62,2.94,2.48,7.14,2.68,9.95-.14,3.06-3.07,2.43-7.79,2.52-11.75.11-5.3.47-10.59,1.1-15.85,5.07-42.59,24.75-80.65,57.02-108.98,7.32-6.42,16.01-11.59,22.84-18.52,5.08-5.16,9.61-15.56,3.11-21.68Z"/>
            <path class="cls-1" d="m334.15,58.24c-20.86-13.89-47.28-16.65-71.53-19.49-14.82-1.73-28.99-.85-43.76,1.09-7.34.96-14.99,2.05-22.22,4.19-7.02.98-13.83,2.67-19.45,7.35-1.16.97-1.31,3.01-.55,4.25,13.21,21.58,41.86,9.6,61.62,9.81,14.1.15,28.14,2.9,42.05,4.95,13.07,1.93,25.29,6.6,38.22,8.81,8.14,1.39,19.74,1.19,25.45-6.08,4.94-6.27-5.38-11.92-9.84-14.89Z"/>
            <g class="cls-6">
              <path class="cls-5" d="m461.11,199.15c-20.96-78.59-70.19-130.95-147.25-156.92-16.49-5.57-33.64-8.28-51.01-9.3-20.67-1.23-41.14.37-61.34,4.95-49.33,11.17-92.9,39.29-123.51,78.57-5.17,6.65-9.98,13.62-14.36,20.88-3.68,6.06-7.06,12.33-10.15,18.77-14.21,29.74-20.47,61.26-20.74,97.02.21,3.66.46,10.24.97,16.81,1.23,16.11,4.23,31.91,9.21,47.28,14.9,45.98,42.26,83.02,81.75,110.69,32.36,22.69,67.24,35.46,104.38,38.72,16.89,1.51,34.26,1.02,52.05-1.38,2.5-.35,5-.72,7.48-1.16,21.15-3.68,41.29-10.7,60.5-20.56,68.28-35.07,112.93-103.38,117.7-180.19,1.34-21.66-.07-43.2-5.67-64.17Zm-211.37,264.18c-30.29,0-59.13-6.35-85.24-17.78-8.67-3.79-17.03-8.13-25.05-13.01-61.7-37.42-103.02-105.25-103.02-182.53,0-117.62,95.69-213.31,213.31-213.31s213.31,95.69,213.31,213.31-95.69,213.31-213.31,213.31Z"/>
            </g>
            <path class="cls-2" d="m111.5,377.2s-13.06-19.7-26.57-30.41c-13.52-10.71-21.05-22.12-23.68-17.28-2.63,4.84,24.9,46.4,38.09,60.18,13.2,13.78,26.01,5.47,12.16-12.49Z"/>
            <path class="cls-2" d="m127.32,103.09c-11.95,9.66-24.32,14.18-27.61,10.09-3.3-4.08,3.72-15.22,15.67-24.88,11.95-9.66,24.32-14.18,27.61-10.09,3.3,4.08-3.72,15.22-15.67,24.88Z"/>
          </g>
          <circle class="cls-8" cx="250" cy="250" r="173.34"/>
          <g>
            <path d="m59.67,199.12c-.33.05-.66.29-.94.51-2.4,1.93-4.8,3.85-7.15,5.84-.55.46-.87,1.18-1.3,1.79.14.19.29.37.43.56.8-.46,1.67-.83,2.39-1.4,1.82-1.42,3.56-2.94,5.35-4.39.68-.55,1.45-.99,2.07-1.59.3-.29.36-.82.53-1.25-.47-.03-.94-.13-1.39-.06Z"/>
            <path d="m52.71,220.96c-.65.72-1.07,1.64-1.6,2.47.17.16.33.32.5.48.65-.45,1.39-.81,1.94-1.36,1.93-1.92,3.82-3.88,5.66-5.89.34-.37.33-1.07.48-1.61-.58.15-1.33.12-1.71.49-1.82,1.74-3.57,3.55-5.26,5.42Z"/>
            <path d="m59.31,206.42c-1.98,1.85-3.92,3.74-5.83,5.66-.3.31-.38.83-.66,1.47.57,0,.78.06.86,0,2.29-2.03,4.58-4.06,6.81-6.16.21-.2.04-.8.05-1.22-.42.07-.97,0-1.23.24Z"/>
            <path d="m58.07,226.95c-.43.02-.99.1-1.25.38-1.49,1.63-2.95,3.29-4.31,5.02-.3.38-.16,1.09-.23,1.65.53-.21,1.2-.28,1.55-.65,1.41-1.5,2.72-3.08,4.06-4.65.26-.3.45-.67.71-1.07-.2-.27-.38-.7-.53-.69Z"/>
          </g>
          <g>
            <path d="m170.15,438.88c-9.65-3.15-19.12-6.72-27.71-12.3-.24-.15-.54-.21-.85-.25-.32-.03-.65-.04-.95-.1.3.51.59,1.03.92,1.52.11.16.33.25.5.36,6.36,4.29,13.27,7.45,20.49,9.95,4.66,1.61,9.42,2.92,14.16,4.3.71.21,1.53.03,2.31.03.04-.2.08-.4.13-.6-.57-.27-1.13-.6-1.72-.79-2.41-.73-4.86-1.34-7.26-2.12Z"/>
            <path d="m130.72,417.59c.18.1.47.01,1.2.01-.72-.93-1.2-1.59-1.72-2.21-1.28-1.52-2.55-3.04-3.88-4.52-.28-.32-.77-.46-1.16-.68-.06.47-.3,1-.16,1.4,1.02,2.81,3.24,4.54,5.71,6Z"/>
          </g>
          <g>
            <path d="m447.66,290.95c3.55-2.43,6.6-5.36,8.64-9.21.2-.37.03-.95.03-1.58-3.6,3.73-6.99,7.24-10.39,10.76.11.15.22.29.33.44.47-.13,1.01-.15,1.39-.41Z"/>
            <path d="m456.01,271.68c-2.11,2.38-4.18,4.79-6.22,7.23-.38.45-.57,1.06-.85,1.6.11.11.22.22.33.33.46-.13,1.08-.11,1.34-.41,2.28-2.62,4.52-5.29,6.69-8,.22-.27-.03-.92-.06-1.39-.41.21-.94.32-1.23.64Z"/>
            <path d="m441.31,311.42c3.19-1.34,5.91-3.31,7.97-6.12.11-.15.13-.35.13-.58,0-.23-.03-.47-.01-.68-.11.03-.23.05-.35.07-.36.06-.73.1-.98.29-2.31,1.79-4.59,3.62-6.86,5.47-.41.34-.74.78-1.1,1.18.07.13.14.26.21.39.33,0,.71.1,1-.02Z"/>
            <path d="m449.39,304.05c-.11.03-.23.05-.35.07.12-.02.24-.04.35-.07h0Z"/>
            <path d="m445.88,300.32c1.53-1.19,3.03-2.44,4.43-3.79.76-.73,1.35-1.67,1.89-2.58.17-.28-.03-.8-.08-1.4-.47.28-.67.36-.81.49-2.18,2.01-4.37,4-6.51,6.05-.29.28-.29.87-.42,1.32.51-.02,1.18.16,1.5-.1Z"/>
          </g>
          <g>
            <path d="m291.1,54.67c.24.29.88.26,1.33.38-.02-.48.14-1.06-.08-1.41-.9-1.43-1.9-2.81-2.89-4.18-.19-.27-.55-.41-1.27-.92-.09.87-.38,1.55-.16,1.91.93,1.47,1.97,2.87,3.07,4.22Z"/>
            <path d="m283.96,52.45c.19.22.91,0,1.38-.02.09-.23.18-.46.27-.69-1.5-1.69-2.91-3.49-4.56-5.01-.54-.5-1.22.39-.78,1.02,1.13,1.64,2.39,3.19,3.69,4.7Z"/>
            <path d="m294.44,53.26c.97,1.25,2.04,2.43,3.16,3.54.26.25.88.14,1.33.19-.02-.42.13-.98-.09-1.24-1.04-1.26-2.16-2.45-3.28-3.65-.19-.21-.52-.29-1.26-.67.04.82-.13,1.49.13,1.83Z"/>
            <path d="m304.78,60.14c.11.18.57.3.79.22.22-.08.33-.44.69-.97-1.01-1.57-2.04-3.2-3.13-4.79-.1-.15-.64-.16-.85-.03-.19.12-.36.6-.26.77.88,1.62,1.8,3.22,2.76,4.79Z"/>
            <path d="m275.62,49.05c.17.21.65.28.95.21.2-.04.33-.43.69-.96-1.17-1.31-2.32-2.62-3.52-3.89-.1-.11-.69,0-.78.17-.14.26-.18.74-.03.96.85,1.2,1.75,2.38,2.69,3.51Z"/>
          </g>
        </g>
        <circle class="cls-8" cx="250" cy="250" r="173.34"/>
        <g class="cls-6">
          <path class="cls-5" d="m246.79,93.89c2.18,5.36,3.94,11.25,5.28,17.66,1.34,6.41,2.31,13.12,2.9,20.13.59,7.01.84,14.18.76,21.52-.09,7.34-.46,14.59-1.12,21.77-.66,7.18-1.57,14.16-2.71,20.95-1.14,6.79-2.49,13.12-4.03,18.99l-13.19,15.14c1.4-20.19,1.54-39.19.42-57-1.12-17.81-3.53-34.77-7.21-50.87l18.9-28.28Z"/>
          <g>
            <path class="cls-5" d="m186.37,335.45c0,.6-.04,1.34-.11,2.21-.08.87-.25,1.72-.52,2.55-.28.82-.69,1.52-1.24,2.1-.55.58-1.3.86-2.25.86h-2.77c-2.3,0-4.28-.22-5.96-.67-1.67-.45-3.14-1.22-4.38-2.32-1.25-1.1-2.32-2.59-3.22-4.46-.9-1.87-1.67-4.26-2.32-7.16-.6.85-1.32,1.74-2.17,2.66-.85.92-1.79,1.76-2.81,2.51-1.02.75-2.14,1.36-3.33,1.84-1.2.48-2.45.71-3.75.71-1.05,0-2.39-.1-4.01-.3-1.62-.2-3.18-.54-4.68-1.01-1.5-.47-2.8-1.1-3.9-1.87-1.1-.77-1.65-1.74-1.65-2.88,0-.6.16-1.47.49-2.62.32-1.15.76-2.38,1.31-3.71.55-1.32,1.17-2.66,1.87-4.01.7-1.35,1.42-2.57,2.17-3.67.65-.95,1.66-2.08,3.03-3.41,1.37-1.32,2.86-2.63,4.46-3.93,1.6-1.3,3.17-2.46,4.72-3.48,1.55-1.02,2.77-1.74,3.67-2.14-.05-.45-.09-.84-.11-1.16-.03-.32-.04-.71-.04-1.16v-.75c0-.15.03-.4.08-.75.1-1.1.42-2.21.97-3.33.55-1.12,1.19-2.15,1.91-3.07.72-.92,1.44-1.67,2.14-2.25.7-.57,1.25-.86,1.65-.86.05,0,.14.36.26,1.09.12.72.29,1.66.49,2.81.2,1.15.42,2.45.67,3.9.25,1.45.5,2.9.75,4.35.35,2.25.72,4.5,1.12,6.74.4,2.25.76,4.31,1.09,6.18.32,1.87.61,3.48.86,4.83.25,1.35.42,2.2.52,2.55.2.85.42,1.6.67,2.25.25.65.64,1.22,1.16,1.72.52.5,1.27.87,2.25,1.12.97.25,2.31.37,4.01.37h2.77c.95,0,1.7.29,2.25.86.55.57.96,1.27,1.24,2.1.27.82.45,1.66.52,2.51.08.85.11,1.57.11,2.17Zm-24.28-14.91c-.25-1.15-.52-2.7-.82-4.65-.3-1.95-.63-3.82-.97-5.62-1.9.8-3.61,1.74-5.13,2.81-1.52,1.07-2.81,2.12-3.86,3.15-1.05,1.02-1.86,1.92-2.44,2.7-.57.77-.86,1.24-.86,1.39s.31.31.94.49c.62.18,1.41.34,2.36.49.95.15,1.99.26,3.11.34,1.12.08,2.18.11,3.18.11,1.25,0,2.17-.1,2.77-.3.6-.2,1.17-.5,1.72-.9Z"/>
            <path class="cls-5" d="m209.08,335.45c0,1.15-.01,2.19-.04,3.11-.03.92-.14,1.74-.34,2.44-.2.7-.5,1.24-.9,1.61-.4.37-.97.56-1.72.56h-26.22c-.75,0-1.32-.19-1.72-.56-.4-.37-.7-.91-.9-1.61-.2-.7-.31-1.51-.34-2.44-.02-.92-.04-1.96-.04-3.11s.01-2.12.04-3.07c.03-.95.14-1.76.34-2.44.2-.67.5-1.2.9-1.57.4-.37.97-.56,1.72-.56h26.22c.75,0,1.32.19,1.72.56.4.37.7.9.9,1.57.2.67.31,1.49.34,2.44.02.95.04,1.97.04,3.07Z"/>
            <path class="cls-5" d="m241.74,335.38c0,2.45-.22,4.36-.67,5.73-.45,1.37-1.6,2.06-3.45,2.06h-2.92c-1.4,0-2.56-.17-3.48-.52-.92-.35-1.89-.95-2.88-1.8-.85-.7-1.65-1.62-2.4-2.77-.75-1.15-1.37-2.45-1.87-3.9-.9,1.2-1.86,2.34-2.88,3.41-1.02,1.07-2.24,2.02-3.63,2.85-1.4.82-3,1.49-4.8,1.99-1.8.5-3.9.75-6.29.75h-2.77c-.95,0-1.7-.16-2.25-.49-.55-.32-.96-.82-1.24-1.5-.27-.67-.45-1.49-.52-2.44-.08-.95-.11-2.07-.11-3.37,0-1.2.04-2.26.11-3.18.08-.92.25-1.71.52-2.36.28-.65.69-1.15,1.24-1.5.55-.35,1.3-.52,2.25-.52h2.77c2.6,0,4.86-.24,6.78-.71,1.92-.47,3.56-1.09,4.91-1.84,1.35-.75,2.46-1.54,3.33-2.36.87-.82,1.62-1.61,2.25-2.36.62-.75,1.14-1.36,1.54-1.84.4-.47.8-.71,1.2-.71.3,0,.62.22.97.67.35.45.72,1.6,1.12,3.45.15.65.34,1.31.56,1.99s.57,1.29,1.05,1.84c.47.55,1.07,1,1.8,1.35.72.35,1.64.52,2.73.52h2.92c1.85,0,3,.65,3.45,1.95.45,1.3.67,3.17.67,5.62Zm-13.34,13.71c.3,0,.97.35,2.02,1.05,1.05.7,2.15,1.49,3.3,2.36,1.15.87,2.17,1.72,3.07,2.55.9.82,1.35,1.34,1.35,1.54s-.15.6-.45,1.2c-.3.6-.69,1.3-1.16,2.1-.48.8-1,1.64-1.57,2.51-.57.87-1.12,1.67-1.65,2.4-.52.72-1,1.32-1.42,1.8-.42.47-.71.71-.86.71-.2,0-.79-.35-1.76-1.05-.97-.7-2.04-1.47-3.18-2.32l-4.5-3.45c-.3-.3-.63-.45-.97-.45-.15,0-.35.22-.6.67-1.15,1.6-2.17,3.05-3.07,4.35-.8,1.1-1.57,2.08-2.32,2.96-.75.87-1.25,1.31-1.5,1.31-.1,0-.41-.16-.94-.49-.52-.33-1.16-.75-1.91-1.27-.75-.52-1.52-1.09-2.32-1.69-.8-.6-1.55-1.17-2.25-1.72-.7-.55-1.27-1.04-1.72-1.46-.45-.42-.67-.71-.67-.86,0-.2.16-.6.49-1.2.33-.6.74-1.31,1.24-2.14.5-.82,1.04-1.69,1.61-2.58.57-.9,1.14-1.71,1.69-2.44.55-.72,1.02-1.34,1.42-1.84.4-.5.65-.75.75-.75.35,0,1.02.36,2.02,1.09,1,.72,2.05,1.51,3.15,2.36,1.3,1,2.67,2.12,4.12,3.37.3.35.57.52.82.52.15,0,.29-.05.41-.15.12-.1.31-.33.56-.67,1.15-1.5,2.2-2.87,3.15-4.12.8-1.05,1.56-2.01,2.29-2.88.72-.87,1.19-1.31,1.39-1.31Z"/>
            <path class="cls-5" d="m263.7,245.17c0,.15-.11.57-.34,1.27-.23.7-.49,1.49-.79,2.36-.3.87-.61,1.7-.94,2.47-.33.77-.59,1.26-.79,1.46-.35.35-.8.67-1.35.97-.55.3-1.17.65-1.87,1.05l-18.13,9.74c-1.2.65-2.01,1.12-2.44,1.42-.42.3-.84.45-1.24.45-.65,0-.97-.35-.97-1.05,0-.2.09-.65.26-1.35.18-.7.37-1.45.6-2.25.23-.8.46-1.54.71-2.21.25-.67.48-1.11.67-1.31.2-.2.48-.41.82-.64.35-.23.87-.54,1.57-.94l18.58-10.04c.85-.45,1.76-.95,2.73-1.5.97-.55,1.61-.82,1.91-.82.35,0,.6.09.75.26.15.18.23.39.23.64Z"/>
            <path class="cls-5" d="m273.74,335.38c0,2.45-.22,4.36-.67,5.73-.45,1.37-1.6,2.06-3.45,2.06h-2.92c-1.4,0-2.56-.17-3.48-.52-.92-.35-1.89-.95-2.88-1.8-.85-.7-1.65-1.62-2.4-2.77-.75-1.15-1.37-2.45-1.87-3.9-.9,1.2-1.86,2.34-2.88,3.41-1.02,1.07-2.24,2.02-3.63,2.85-1.4.82-3,1.49-4.8,1.99-1.8.5-3.9.75-6.29.75h-2.77c-.95,0-1.7-.16-2.25-.49-.55-.32-.96-.82-1.24-1.5-.27-.67-.45-1.49-.52-2.44-.08-.95-.11-2.07-.11-3.37,0-1.2.04-2.26.11-3.18.08-.92.25-1.71.52-2.36.28-.65.69-1.15,1.24-1.5.55-.35,1.3-.52,2.25-.52h2.77c2.6,0,4.86-.24,6.78-.71,1.92-.47,3.56-1.09,4.91-1.84,1.35-.75,2.46-1.54,3.33-2.36.87-.82,1.62-1.61,2.25-2.36.62-.75,1.14-1.36,1.54-1.84.4-.47.8-.71,1.2-.71.3,0,.62.22.97.67.35.45.72,1.6,1.12,3.45.15.65.34,1.31.56,1.99s.57,1.29,1.05,1.84c.47.55,1.07,1,1.8,1.35.72.35,1.64.52,2.73.52h2.92c1.85,0,3,.65,3.45,1.95.45,1.3.67,3.17.67,5.62Zm-11.84-35.96c0,.2-.16.61-.49,1.24-.33.63-.74,1.36-1.24,2.21-.5.85-1.06,1.75-1.69,2.7-.63.95-1.22,1.81-1.8,2.59-.57.77-1.11,1.42-1.61,1.95-.5.52-.85.79-1.05.79-.15,0-.79-.36-1.91-1.09-1.12-.72-2.31-1.55-3.56-2.47-1.25-.92-2.39-1.82-3.41-2.7-1.02-.87-1.54-1.44-1.54-1.69,0-.2.16-.62.49-1.27.32-.65.75-1.4,1.27-2.25.52-.85,1.1-1.75,1.72-2.7.62-.95,1.22-1.81,1.8-2.58.57-.77,1.09-1.42,1.54-1.95.45-.52.77-.79.97-.79.3,0,1.01.37,2.14,1.12,1.12.75,2.31,1.59,3.56,2.51,1.25.92,2.36,1.82,3.33,2.7.97.87,1.46,1.44,1.46,1.69Z"/>
            <path class="cls-5" d="m302.36,247.41c2.15,0,3.77.79,4.87,2.36,1.1,1.57,1.65,3.58,1.65,6.03,0,1.35-.28,2.8-.82,4.35-.55,1.55-1.3,3.12-2.25,4.72,1,.7,1.87,1.31,2.62,1.84.75.52,1.3.89,1.65,1.09.25.15.37.37.37.67,0,.4-.18.97-.52,1.72-.35.75-.75,1.5-1.2,2.25-.45.75-.89,1.41-1.31,1.99-.42.57-.71.86-.86.86-.3,0-1.01-.3-2.14-.9-1.12-.6-2.41-1.4-3.86-2.4-2,2.25-4.01,4.08-6.03,5.51s-3.73,2.14-5.13,2.14c-.75,0-1.6-.1-2.55-.3-.95-.2-1.88-.45-2.81-.75-.92-.3-1.79-.64-2.59-1.01-.8-.37-1.42-.74-1.87-1.09,3.3-1.25,6.28-2.59,8.95-4.01s4.98-2.86,6.93-4.31c-1.4-1.25-2.58-2.51-3.56-3.78-.97-1.27-1.46-2.48-1.46-3.63,0-1.05.29-2.33.86-3.86.57-1.52,1.39-2.98,2.44-4.38,1.05-1.4,2.31-2.6,3.78-3.6,1.47-1,3.08-1.5,4.83-1.5Zm-5.92,8.32c0,.7.51,1.59,1.54,2.66,1.02,1.08,2.23,2.19,3.63,3.33.65-1.15.97-2.12.97-2.92,0-.5-.11-1.02-.34-1.57-.23-.55-.54-1.06-.94-1.54-.4-.47-.89-.87-1.46-1.2-.57-.32-1.21-.49-1.91-.49-.65,0-1.06.21-1.24.64-.18.42-.26.79-.26,1.09Z"/>
            <path class="cls-5" d="m346.34,309.83c0,.15-.08.74-.22,1.76-.15,1.02-.34,2.16-.56,3.41-.22,1.25-.44,2.42-.64,3.52-.2,1.1-.35,1.8-.45,2.1-.05.15-.74.29-2.06.41-1.32.13-3.12.22-5.4.3s-4.92.13-7.94.15c-3.02.03-6.26.04-9.7.04-2.35,0-4.56.39-6.63,1.16-2.07.78-4.11,1.77-6.11,3-2,1.22-3.97,2.6-5.92,4.12-1.95,1.52-3.95,3.03-5.99,4.53-1.65,1.2-3.37,2.32-5.17,3.37s-3.71,1.99-5.73,2.81c-2.02.82-4.13,1.47-6.33,1.95-2.2.48-4.5.71-6.89.71h-2.92c-.95,0-1.7-.29-2.25-.86-.55-.57-.96-1.27-1.24-2.1-.27-.82-.45-1.67-.52-2.55-.08-.87-.11-1.61-.11-2.21s.04-1.32.11-2.17c.08-.85.25-1.69.52-2.51.28-.82.69-1.52,1.24-2.1.55-.57,1.3-.86,2.25-.86h2.77c3.85,0,7.77-.21,11.76-.64,4-.42,7.72-1.34,11.16-2.74.95-.4,1.95-.86,3-1.39,1.05-.52,2.1-1.04,3.15-1.54,1.05-.5,2.1-.96,3.15-1.39,1.05-.42,2.05-.74,3-.94-1.05-.4-2.41-1-4.08-1.8-1.67-.8-3.51-1.59-5.51-2.36-2-.77-4.08-1.45-6.26-2.02-2.17-.57-4.26-.86-6.26-.86-1.05,0-2.09.16-3.11.49-1.02.33-1.95.7-2.77,1.12-.82.42-1.52.8-2.1,1.12-.57.33-.89.49-.94.49-.1,0-.28-.05-.52-.15-.25-.1-.5-.21-.75-.34-.25-.12-.49-.25-.71-.37-.22-.12-.34-.24-.34-.34,0-1,.17-2.11.52-3.33.35-1.22.84-2.46,1.46-3.71.62-1.25,1.39-2.44,2.29-3.56.9-1.12,1.9-2.06,3-2.81,1.25-.85,2.62-1.57,4.12-2.17s3.45-.9,5.84-.9c1.55,0,3.36.37,5.43,1.12,2.07.75,4.21,1.62,6.41,2.62,2.2,1,4.39,1.99,6.59,2.96,2.2.97,4.17,1.66,5.92,2.06,2.7.65,5.63,1.22,8.8,1.72,3.17.5,6.71.85,10.6,1.05,1.2.05,2.55.1,4.05.15,1.5.05,2.92.09,4.27.11,1.35.03,2.47.08,3.37.15.9.07,1.35.14,1.35.19Zm-28.77,45.48c0,.2-.16.61-.49,1.24-.33.62-.74,1.36-1.24,2.21-.5.85-1.06,1.75-1.69,2.7-.63.95-1.22,1.81-1.8,2.59-.57.77-1.11,1.42-1.61,1.95-.5.52-.85.79-1.05.79-.15,0-.79-.36-1.91-1.09-1.12-.72-2.31-1.55-3.56-2.47-1.25-.92-2.39-1.82-3.41-2.7-1.02-.87-1.54-1.44-1.54-1.69,0-.2.16-.62.49-1.27.32-.65.75-1.4,1.27-2.25.52-.85,1.1-1.75,1.72-2.7.62-.95,1.22-1.81,1.8-2.59.57-.77,1.09-1.42,1.54-1.95.45-.52.77-.79.97-.79.3,0,1.01.37,2.14,1.12s2.31,1.59,3.56,2.51c1.25.92,2.36,1.82,3.33,2.7.97.87,1.46,1.44,1.46,1.69Z"/>
          </g>
        </g>
        <g>
          <path class="cls-10" d="m234.68,230.04l13.19-15.14c1.55-5.87,2.89-12.2,4.03-18.99,1.14-6.79,2.05-13.77,2.71-20.95.66-7.18,1.04-14.43,1.12-21.77.08-7.34-.17-14.51-.76-21.52-.59-7.01-1.56-13.72-2.9-20.13-1.34-6.41-3.1-12.3-5.28-17.66l-18.9,28.28c3.68,16.1,6.08,33.06,7.21,50.87,1.12,17.81.98,36.81-.42,57Z"/>
          <path class="cls-10" d="m236.8,355.05c-.9-.82-1.92-1.67-3.07-2.55-1.15-.87-2.25-1.66-3.3-2.36-1.05-.7-1.72-1.05-2.02-1.05-.2,0-.66.44-1.39,1.31-.72.87-1.49,1.84-2.29,2.88-.95,1.25-2,2.62-3.15,4.12-.25.35-.44.57-.56.67-.13.1-.26.15-.41.15-.25,0-.52-.18-.82-.52-1.45-1.25-2.82-2.37-4.12-3.37-1.1-.85-2.15-1.64-3.15-2.36-1-.72-1.67-1.09-2.02-1.09-.1,0-.35.25-.75.75-.4.5-.87,1.11-1.42,1.84-.55.72-1.11,1.54-1.69,2.44-.57.9-1.11,1.76-1.61,2.58-.5.82-.91,1.54-1.24,2.14-.32.6-.49,1-.49,1.2,0,.15.22.44.67.86.45.42,1.02.91,1.72,1.46.7.55,1.45,1.12,2.25,1.72.8.6,1.57,1.16,2.32,1.69.75.52,1.39.95,1.91,1.27.52.32.84.49.94.49.25,0,.75-.44,1.5-1.31.75-.87,1.52-1.86,2.32-2.96.9-1.3,1.92-2.75,3.07-4.35.25-.45.45-.67.6-.67.35,0,.67.15.97.45l4.5,3.45c1.15.85,2.21,1.62,3.18,2.32.97.7,1.56,1.05,1.76,1.05.15,0,.44-.24.86-.71.42-.48.9-1.07,1.42-1.8.52-.72,1.07-1.52,1.65-2.4.57-.87,1.1-1.71,1.57-2.51.47-.8.86-1.5,1.16-2.1.3-.6.45-1,.45-1.2s-.45-.71-1.35-1.54Z"/>
          <path class="cls-10" d="m237.92,257.57c-.35.22-.62.44-.82.64-.2.2-.42.64-.67,1.31-.25.67-.49,1.41-.71,2.21-.22.8-.42,1.55-.6,2.25-.17.7-.26,1.15-.26,1.35,0,.7.33,1.05.97,1.05.4,0,.81-.15,1.24-.45.42-.3,1.24-.77,2.44-1.42l18.13-9.74c.7-.4,1.32-.75,1.87-1.05.55-.3,1-.62,1.35-.97.2-.2.46-.69.79-1.46.32-.77.64-1.6.94-2.47.3-.87.56-1.66.79-2.36.22-.7.34-1.12.34-1.27,0-.25-.08-.46-.23-.64-.15-.17-.4-.26-.75-.26-.3,0-.94.28-1.91.82-.97.55-1.89,1.05-2.73,1.5l-18.58,10.04c-.7.4-1.22.71-1.57.94Z"/>
          <path class="cls-10" d="m260.44,297.73c-.97-.87-2.09-1.77-3.33-2.7-1.25-.92-2.44-1.76-3.56-2.51-1.12-.75-1.84-1.12-2.14-1.12-.2,0-.52.26-.97.79-.45.52-.96,1.17-1.54,1.95-.57.77-1.17,1.64-1.8,2.58-.63.95-1.2,1.85-1.72,2.7-.52.85-.95,1.6-1.27,2.25-.33.65-.49,1.08-.49,1.27,0,.25.51.81,1.54,1.69,1.02.87,2.16,1.77,3.41,2.7,1.25.92,2.44,1.75,3.56,2.47,1.12.72,1.76,1.09,1.91,1.09.2,0,.55-.26,1.05-.79.5-.52,1.04-1.17,1.61-1.95.57-.77,1.17-1.64,1.8-2.59.62-.95,1.19-1.85,1.69-2.7.5-.85.91-1.59,1.24-2.21.32-.62.49-1.04.49-1.24,0-.25-.49-.81-1.46-1.69Z"/>
          <path class="cls-10" d="m284.04,278.58c.92.3,1.86.55,2.81.75.95.2,1.8.3,2.55.3,1.4,0,3.11-.71,5.13-2.14s4.03-3.26,6.03-5.51c1.45,1,2.73,1.8,3.86,2.4,1.12.6,1.84.9,2.14.9.15,0,.44-.29.86-.86.42-.57.86-1.24,1.31-1.99.45-.75.85-1.5,1.2-2.25.35-.75.52-1.32.52-1.72,0-.3-.13-.52-.37-.67-.35-.2-.9-.56-1.65-1.09-.75-.52-1.62-1.14-2.62-1.84.95-1.6,1.7-3.17,2.25-4.72.55-1.55.82-3,.82-4.35,0-2.45-.55-4.46-1.65-6.03-1.1-1.57-2.72-2.36-4.87-2.36-1.75,0-3.36.5-4.83,1.5-1.47,1-2.73,2.2-3.78,3.6-1.05,1.4-1.86,2.86-2.44,4.38-.57,1.52-.86,2.81-.86,3.86,0,1.15.49,2.36,1.46,3.63.97,1.27,2.16,2.54,3.56,3.78-1.95,1.45-4.26,2.88-6.93,4.31s-5.66,2.76-8.95,4.01c.45.35,1.08.71,1.87,1.09.8.37,1.66.71,2.59,1.01Zm12.66-23.94c.17-.42.59-.64,1.24-.64.7,0,1.34.16,1.91.49.57.33,1.06.72,1.46,1.2.4.48.71.99.94,1.54.22.55.34,1.07.34,1.57,0,.8-.33,1.77-.97,2.92-1.4-1.15-2.61-2.26-3.63-3.33-1.02-1.07-1.54-1.96-1.54-2.66,0-.3.09-.66.26-1.09Z"/>
          <path class="cls-10" d="m316.11,353.62c-.97-.87-2.09-1.77-3.33-2.7-1.25-.92-2.44-1.76-3.56-2.51s-1.84-1.12-2.14-1.12c-.2,0-.52.26-.97.79-.45.52-.96,1.17-1.54,1.95-.57.77-1.17,1.64-1.8,2.59-.63.95-1.2,1.85-1.72,2.7-.52.85-.95,1.6-1.27,2.25-.33.65-.49,1.07-.49,1.27,0,.25.51.81,1.54,1.69,1.02.87,2.16,1.77,3.41,2.7,1.25.92,2.44,1.75,3.56,2.47,1.12.72,1.76,1.09,1.91,1.09.2,0,.55-.26,1.05-.79.5-.52,1.04-1.17,1.61-1.95.57-.78,1.17-1.64,1.8-2.59.62-.95,1.19-1.85,1.69-2.7.5-.85.91-1.59,1.24-2.21.32-.63.49-1.04.49-1.24,0-.25-.49-.81-1.46-1.69Z"/>
          <path class="cls-10" d="m344.99,309.64c-.9-.08-2.02-.12-3.37-.15-1.35-.02-2.77-.06-4.27-.11-1.5-.05-2.85-.1-4.05-.15-3.9-.2-7.43-.55-10.6-1.05-3.17-.5-6.11-1.07-8.8-1.72-1.75-.4-3.72-1.09-5.92-2.06-2.2-.97-4.4-1.96-6.59-2.96-2.2-1-4.33-1.87-6.41-2.62-2.07-.75-3.88-1.12-5.43-1.12-2.4,0-4.35.3-5.84.9s-2.87,1.32-4.12,2.17c-1.1.75-2.1,1.69-3,2.81-.9,1.12-1.66,2.31-2.29,3.56-.63,1.25-1.11,2.49-1.46,3.71-.35,1.22-.52,2.34-.52,3.33,0,.1.11.21.34.34.23.13.46.25.71.37.25.13.5.24.75.34.25.1.42.15.52.15.05,0,.36-.16.94-.49.57-.32,1.27-.7,2.1-1.12.82-.42,1.75-.8,2.77-1.12,1.02-.32,2.06-.49,3.11-.49,2,0,4.08.29,6.26.86,2.17.57,4.26,1.25,6.26,2.02,2,.77,3.83,1.56,5.51,2.36,1.67.8,3.03,1.4,4.08,1.8-.95.2-1.95.51-3,.94-1.05.42-2.1.89-3.15,1.39-1.05.5-2.1,1.01-3.15,1.54-1.05.52-2.05.99-3,1.39-3.45,1.4-7.17,2.31-11.16,2.74-4,.42-7.92.64-11.76.64h-3.75c-1.1,0-2.01-.17-2.73-.52-.72-.35-1.32-.8-1.8-1.35-.48-.55-.82-1.16-1.05-1.84s-.41-1.34-.56-1.99c-.4-1.85-.78-3-1.12-3.45-.35-.45-.67-.67-.97-.67-.4,0-.8.24-1.2.71-.4.48-.91,1.09-1.54,1.84-.62.75-1.37,1.54-2.25,2.36-.87.82-1.99,1.61-3.33,2.36-1.35.75-2.99,1.36-4.91,1.84-1.92.48-4.18.71-6.78.71h-3.75c-1.1,0-2.01-.17-2.73-.52-.72-.35-1.32-.8-1.8-1.35-.48-.55-.82-1.16-1.05-1.84s-.41-1.34-.56-1.99c-.4-1.85-.78-3-1.12-3.45-.35-.45-.67-.67-.97-.67-.4,0-.8.24-1.2.71-.4.48-.91,1.09-1.54,1.84-.62.75-1.37,1.54-2.25,2.36-.87.82-1.99,1.61-3.33,2.36-1.35.75-2.99,1.36-4.91,1.84-1.92.48-4.18.71-6.78.71h-26.97c-1.7,0-3.03-.12-4.01-.37-.97-.25-1.72-.62-2.25-1.12-.52-.5-.91-1.07-1.16-1.72-.25-.65-.48-1.4-.67-2.25-.1-.35-.28-1.2-.52-2.55-.25-1.35-.54-2.96-.86-4.83-.33-1.87-.69-3.93-1.09-6.18-.4-2.25-.78-4.5-1.12-6.74-.25-1.45-.5-2.9-.75-4.35-.25-1.45-.48-2.75-.67-3.9-.2-1.15-.36-2.09-.49-2.81-.13-.72-.21-1.09-.26-1.09-.4,0-.95.29-1.65.86-.7.57-1.41,1.32-2.14,2.25-.72.92-1.36,1.95-1.91,3.07-.55,1.12-.87,2.24-.97,3.33-.05.35-.08.6-.08.75v.75c0,.45.01.84.04,1.16.02.33.06.71.11,1.16-.9.4-2.12,1.11-3.67,2.14-1.55,1.02-3.12,2.19-4.72,3.48-1.6,1.3-3.08,2.61-4.46,3.93-1.37,1.32-2.39,2.46-3.03,3.41-.75,1.1-1.47,2.32-2.17,3.67-.7,1.35-1.32,2.69-1.87,4.01-.55,1.32-.99,2.56-1.31,3.71-.33,1.15-.49,2.02-.49,2.62,0,1.15.55,2.11,1.65,2.88,1.1.77,2.4,1.4,3.9,1.87,1.5.48,3.06.81,4.68,1.01,1.62.2,2.96.3,4.01.3,1.3,0,2.55-.24,3.75-.71,1.2-.47,2.31-1.09,3.33-1.84,1.02-.75,1.96-1.59,2.81-2.51.85-.92,1.57-1.81,2.17-2.66.65,2.9,1.42,5.28,2.32,7.16.9,1.87,1.97,3.36,3.22,4.46,1.25,1.1,2.71,1.87,4.38,2.32,1.67.45,3.66.67,5.96.67h26.97c2.4,0,4.5-.25,6.29-.75,1.8-.5,3.4-1.16,4.8-1.99,1.4-.82,2.61-1.77,3.63-2.85,1.02-1.07,1.99-2.21,2.88-3.41.5,1.45,1.12,2.75,1.87,3.9.75,1.15,1.55,2.07,2.4,2.77,1,.85,1.96,1.45,2.88,1.8.92.35,2.08.52,3.48.52h3.75c2.4,0,4.5-.25,6.29-.75,1.8-.5,3.4-1.16,4.8-1.99,1.4-.82,2.61-1.77,3.63-2.85,1.02-1.07,1.99-2.21,2.88-3.41.5,1.45,1.12,2.75,1.87,3.9.75,1.15,1.55,2.07,2.4,2.77,1,.85,1.96,1.45,2.88,1.8.92.35,2.08.52,3.48.52h3.9c2.4,0,4.69-.24,6.89-.71,2.2-.47,4.31-1.12,6.33-1.95,2.02-.82,3.93-1.76,5.73-2.81s3.52-2.17,5.17-3.37c2.05-1.5,4.05-3.01,5.99-4.53,1.95-1.52,3.92-2.9,5.92-4.12,2-1.22,4.03-2.22,6.11-3,2.07-.77,4.28-1.16,6.63-1.16,3.45,0,6.68-.01,9.7-.04,3.02-.02,5.67-.08,7.94-.15s4.07-.17,5.4-.3c1.32-.12,2.01-.26,2.06-.41.1-.3.25-1,.45-2.1.2-1.1.41-2.27.64-3.52.23-1.25.41-2.38.56-3.41.15-1.02.22-1.61.22-1.76,0-.05-.45-.11-1.35-.19Zm-184.62,11.8c-.6.2-1.52.3-2.77.3-1,0-2.06-.04-3.18-.11-1.12-.07-2.16-.19-3.11-.34-.95-.15-1.74-.31-2.36-.49-.63-.17-.94-.34-.94-.49s.29-.61.86-1.39c.57-.77,1.39-1.67,2.44-2.7,1.05-1.02,2.33-2.07,3.86-3.15,1.52-1.07,3.23-2.01,5.13-2.81.35,1.8.67,3.67.97,5.62.3,1.95.57,3.5.82,4.65-.55.4-1.12.7-1.72.9Z"/>
        </g>
      </g>
    </g>
  </g>
</svg>