<?xml version="1.0" encoding="UTF-8"?>
<svg xmlns="http://www.w3.org/2000/svg" viewBox="0 0 500 500">
  <defs>
    <style>
      .cls-1, .cls-2, .cls-3, .cls-4 {
        mix-blend-mode: multiply;
      }

      .cls-1, .cls-5, .cls-6, .cls-7, .cls-8, .cls-9, .cls-10, .cls-4 {
        fill: none;
      }

      .cls-1, .cls-3 {
        opacity: .2;
      }

      .cls-11, .cls-12, .cls-13 {
        fill: #fff;
      }

      .cls-12 {
        opacity: .25;
      }

      .cls-12, .cls-13, .cls-10 {
        mix-blend-mode: overlay;
      }

      .cls-2, .cls-3, .cls-14 {
        fill: #93278f;
      }

      .cls-2, .cls-4 {
        opacity: .35;
      }

      .cls-5 {
        stroke-linecap: round;
        stroke-linejoin: round;
        stroke-width: 2.03px;
      }

      .cls-5, .cls-6, .cls-7, .cls-8 {
        stroke: #000;
      }

      .cls-13, .cls-10 {
        opacity: .26;
      }

      .cls-6 {
        stroke-width: 2.55px;
      }

      .cls-6, .cls-7, .cls-8 {
        stroke-miterlimit: 10;
      }

      .cls-7 {
        stroke-width: 2.03px;
      }

      .cls-8 {
        stroke-width: 2.04px;
      }

      .cls-9 {
        isolation: isolate;
      }

      .cls-15 {
        fill: #ffc033;
      }

      .cls-16 {
        fill: #070707;
      }
    </style>
  </defs>
  <g class="cls-9">
    <g id="Layer_1" data-name="Layer 1">
      <circle class="cls-15" cx="250" cy="249.31" r="173.34" transform="translate(-103.07 249.8) rotate(-45)"/>
      <path class="cls-2" d="m250,422.61c-95.56,0-173.29-77.74-173.29-173.3S154.44,76.01,250,76.01s173.29,77.74,173.29,173.29-77.74,173.3-173.29,173.3Zm0-341.56c-92.78,0-168.26,75.48-168.26,168.26s75.48,168.26,168.26,168.26,168.26-75.48,168.26-168.26-75.48-168.26-168.26-168.26Z"/>
      <g>
        <path class="cls-15" d="m250,32.52c-120.11,0-217.48,97.37-217.48,217.48s97.37,217.48,217.48,217.48,217.48-97.37,217.48-217.48S370.11,32.52,250,32.52Zm0,390.82c-95.73,0-173.34-77.61-173.34-173.34S154.27,76.66,250,76.66s173.34,77.61,173.34,173.34-77.61,173.34-173.34,173.34Z"/>
        <circle class="cls-8" cx="250" cy="250" r="173.34"/>
        <circle class="cls-6" cx="250" cy="250" r="217.5"/>
        <g>
          <path class="cls-3" d="m466.78,263.33c-4.77,76.81-49.42,145.12-117.7,180.19-19.2,9.86-39.35,16.88-60.5,20.56-2.47.44-4.98.82-7.48,1.16-17.79,2.41-35.16,2.89-52.05,1.38-31.19-2.74-60.77-12.19-88.63-28.58,21.94,10.08,44.89,16.11,68.76,18.21,16.89,1.51,34.26,1.02,52.05-1.38,2.5-.35,5-.72,7.48-1.16,21.15-3.68,41.29-10.7,60.5-20.56,68.28-35.07,112.93-103.38,117.7-180.19,1.34-21.66-.07-43.2-5.67-64.17-16.29-61.08-49.64-106.3-99.87-135.62,61.38,28.49,101.39,77.18,119.74,145.99,5.6,20.97,7.01,42.51,5.67,64.17Z"/>
          <path class="cls-12" d="m148.83,76.24c-3.01-2.83-6.3-1.27-9.41.39-3.04,1.63-6,3.43-8.91,5.32-14.69,7.06-27.01,18.34-37.81,30.69-14.74,16.86-27.9,35.52-35.8,56.61-4.2,11.22-6.32,22.91-7.8,34.76-1.5,11.99-3.49,24.46-1.91,36.54.59,4.53,1.39,9.5,5.1,12.62,2.94,2.48,7.14,2.68,9.95-.14,3.06-3.07,2.43-7.79,2.52-11.75.11-5.3.47-10.59,1.1-15.85,5.07-42.59,24.75-80.65,57.02-108.98,7.32-6.42,16.01-11.59,22.84-18.52,5.08-5.16,9.61-15.56,3.11-21.68Z"/>
          <path class="cls-12" d="m334.15,58.24c-20.86-13.89-47.28-16.65-71.53-19.49-14.82-1.73-28.99-.85-43.76,1.09-7.34.96-14.99,2.05-22.22,4.19-7.02.98-13.83,2.67-19.45,7.35-1.16.97-1.31,3.01-.55,4.25,13.21,21.58,41.86,9.6,61.62,9.81,14.1.15,28.14,2.9,42.05,4.95,13.07,1.93,25.29,6.6,38.22,8.81,8.14,1.39,19.74,1.19,25.45-6.08,4.94-6.27-5.38-11.92-9.84-14.89Z"/>
          <g class="cls-4">
            <path class="cls-14" d="m461.11,199.15c-20.96-78.59-70.19-130.95-147.25-156.92-16.49-5.57-33.64-8.28-51.01-9.3-20.67-1.23-41.14.37-61.34,4.95-49.33,11.17-92.9,39.29-123.51,78.57-5.17,6.65-9.98,13.62-14.36,20.88-3.68,6.06-7.06,12.33-10.15,18.77-14.21,29.74-20.47,61.26-20.74,97.02.21,3.66.46,10.24.97,16.81,1.23,16.11,4.23,31.91,9.21,47.28,14.9,45.98,42.26,83.02,81.75,110.69,32.36,22.69,67.24,35.46,104.38,38.72,16.89,1.51,34.26,1.02,52.05-1.38,2.5-.35,5-.72,7.48-1.16,21.15-3.68,41.29-10.7,60.5-20.56,68.28-35.07,112.93-103.38,117.7-180.19,1.34-21.66-.07-43.2-5.67-64.17Zm-211.37,264.18c-30.29,0-59.13-6.35-85.24-17.78-8.67-3.79-17.03-8.13-25.05-13.01-61.7-37.42-103.02-105.25-103.02-182.53,0-117.62,95.69-213.31,213.31-213.31s213.31,95.69,213.31,213.31-95.69,213.31-213.31,213.31Z"/>
          </g>
          <path class="cls-13" d="m111.5,377.2s-13.06-19.7-26.57-30.41c-13.52-10.71-21.05-22.12-23.68-17.28-2.63,4.84,24.9,46.4,38.09,60.18,13.2,13.78,26.01,5.47,12.16-12.49Z"/>
          <path class="cls-13" d="m127.32,103.09c-11.95,9.66-24.32,14.18-27.61,10.09-3.3-4.08,3.72-15.22,15.67-24.88,11.95-9.66,24.32-14.18,27.61-10.09,3.3,4.08-3.72,15.22-15.67,24.88Z"/>
        </g>
        <circle class="cls-8" cx="250" cy="250" r="173.34"/>
        <g>
          <path d="m59.67,199.12c-.33.05-.66.29-.94.51-2.4,1.93-4.8,3.85-7.15,5.84-.55.46-.87,1.18-1.3,1.79.14.19.29.37.43.56.8-.46,1.67-.83,2.39-1.4,1.82-1.42,3.56-2.94,5.35-4.39.68-.55,1.45-.99,2.07-1.59.3-.29.36-.82.53-1.25-.47-.03-.94-.13-1.39-.06Z"/>
          <path d="m52.71,220.96c-.65.72-1.07,1.64-1.6,2.47.17.16.33.32.5.48.65-.45,1.39-.81,1.94-1.36,1.93-1.92,3.82-3.88,5.66-5.89.34-.37.33-1.07.48-1.61-.58.15-1.33.12-1.71.49-1.82,1.74-3.57,3.55-5.26,5.42Z"/>
          <path d="m59.31,206.42c-1.98,1.85-3.92,3.74-5.83,5.66-.3.31-.38.83-.66,1.47.57,0,.78.06.86,0,2.29-2.03,4.58-4.06,6.81-6.16.21-.2.04-.8.05-1.22-.42.07-.97,0-1.23.24Z"/>
          <path d="m58.07,226.95c-.43.02-.99.1-1.25.38-1.49,1.63-2.95,3.29-4.31,5.02-.3.38-.16,1.09-.23,1.65.53-.21,1.2-.28,1.55-.65,1.41-1.5,2.72-3.08,4.06-4.65.26-.3.45-.67.71-1.07-.2-.27-.38-.7-.53-.69Z"/>
        </g>
        <g>
          <path d="m170.15,438.88c-9.65-3.15-19.12-6.72-27.71-12.3-.24-.15-.54-.21-.85-.25-.32-.03-.65-.04-.95-.1.3.51.59,1.03.92,1.52.11.16.33.25.5.36,6.36,4.29,13.27,7.45,20.49,9.95,4.66,1.61,9.42,2.92,14.16,4.3.71.21,1.53.03,2.31.03.04-.2.08-.4.13-.6-.57-.27-1.13-.6-1.72-.79-2.41-.73-4.86-1.34-7.26-2.12Z"/>
          <path d="m130.72,417.59c.18.1.47.01,1.2.01-.72-.93-1.2-1.59-1.72-2.21-1.28-1.52-2.55-3.04-3.88-4.52-.28-.32-.77-.46-1.16-.68-.06.47-.3,1-.16,1.4,1.02,2.81,3.24,4.54,5.71,6Z"/>
        </g>
        <g>
          <path d="m447.66,290.95c3.55-2.43,6.6-5.36,8.64-9.21.2-.37.03-.95.03-1.58-3.6,3.73-6.99,7.24-10.39,10.76.11.15.22.29.33.44.47-.13,1.01-.15,1.39-.41Z"/>
          <path d="m456.01,271.68c-2.11,2.38-4.18,4.79-6.22,7.23-.38.45-.57,1.06-.85,1.6.11.11.22.22.33.33.46-.13,1.08-.11,1.34-.41,2.28-2.62,4.52-5.29,6.69-8,.22-.27-.03-.92-.06-1.39-.41.21-.94.32-1.23.64Z"/>
          <path d="m441.31,311.42c3.19-1.34,5.91-3.31,7.97-6.12.11-.15.13-.35.13-.58,0-.23-.03-.47-.01-.68-.11.03-.23.05-.35.07-.36.06-.73.1-.98.29-2.31,1.79-4.59,3.62-6.86,5.47-.41.34-.74.78-1.1,1.18.07.13.14.26.21.39.33,0,.71.1,1-.02Z"/>
          <path d="m449.39,304.05c-.11.03-.23.05-.35.07.12-.02.24-.04.35-.07h0Z"/>
          <path d="m445.88,300.32c1.53-1.19,3.03-2.44,4.43-3.79.76-.73,1.35-1.67,1.89-2.58.17-.28-.03-.8-.08-1.4-.47.28-.67.36-.81.49-2.18,2.01-4.37,4-6.51,6.05-.29.28-.29.87-.42,1.32.51-.02,1.18.16,1.5-.1Z"/>
        </g>
        <g>
          <path d="m291.1,54.67c.24.29.88.26,1.33.38-.02-.48.14-1.06-.08-1.41-.9-1.43-1.9-2.81-2.89-4.18-.19-.27-.55-.41-1.27-.92-.09.87-.38,1.55-.16,1.91.93,1.47,1.97,2.87,3.07,4.22Z"/>
          <path d="m283.96,52.45c.19.22.91,0,1.38-.02.09-.23.18-.46.27-.69-1.5-1.69-2.91-3.49-4.56-5.01-.54-.5-1.22.39-.78,1.02,1.13,1.64,2.39,3.19,3.69,4.7Z"/>
          <path d="m294.44,53.26c.97,1.25,2.04,2.43,3.16,3.54.26.25.88.14,1.33.19-.02-.42.13-.98-.09-1.24-1.04-1.26-2.16-2.45-3.28-3.65-.19-.21-.52-.29-1.26-.67.04.82-.13,1.49.13,1.83Z"/>
          <path d="m304.78,60.14c.11.18.57.3.79.22.22-.08.33-.44.69-.97-1.01-1.57-2.04-3.2-3.13-4.79-.1-.15-.64-.16-.85-.03-.19.12-.36.6-.26.77.88,1.62,1.8,3.22,2.76,4.79Z"/>
          <path d="m275.62,49.05c.17.21.65.28.95.21.2-.04.33-.43.69-.96-1.17-1.31-2.32-2.62-3.52-3.89-.1-.11-.69,0-.78.17-.14.26-.18.74-.03.96.85,1.2,1.75,2.38,2.69,3.51Z"/>
        </g>
      </g>
      <circle class="cls-8" cx="250" cy="249.31" r="173.34"/>
      <path class="cls-15" d="m377.44,264.54c5.62,15.38,8.47,40.55,8.47,74.81,0,20.11-4.01,37.34-11.91,51.22-7.19,12.63-17.8,22.85-31.54,30.33-7.36,4.01-15.63,7.28-24.94,9.87-18.1,5.02-40.16,7.43-67.52,7.43-14.79,0-28.02-.72-39.93-2.15-21.45-2.59-38.59-7.56-52.51-15.16-13.74-7.48-24.35-17.7-31.56-30.33-7.89-13.88-11.9-31.11-11.9-51.22,0-34.26,2.85-59.43,8.47-74.81,1.47-4,2.99-6.95,4.42-9.11-6.14-2.66-13.8-7.51-12.81-14.98,3.46-25.91,18.13-71.22,24.28-89.5,5.13-15.29,10.43-29.97,14.9-41.35,7.36-18.73,8.96-19.81,10.25-20.66,6.04-4.04,53.3-27.15,86.39-27.15s80.36,23.11,86.41,27.15c1.28.84,2.86,1.93,9.9,19.76.13.32.23.59.36.91,4.47,11.38,9.76,26.06,14.9,41.35,6.14,18.27,20.82,63.58,24.28,89.5.32,2.4-.27,4.53-1.39,6.4-2.39,3.96-7.25,6.78-11.43,8.58,1.44,2.16,2.96,5.11,4.43,9.11Z"/>
      <path class="cls-15" d="m342.81,352.44c-.64,7.46-2.58,14.37-4.31,19.3,7.36-10.6,10.99-24.13,10.99-40.86,0-14.12-.65-25.15-1.63-33.76-4.07,16.36-3.96,42.53-5.05,55.33Z"/>
      <path class="cls-15" d="m362.02,395.3c8.34-10.57,17.54-23.47,16.67-62.01-.82-36.47-2.12-54.87-10.76-73.12-.39.13-.76.26-1.21.41,4.68,8.57,10.56,28.87,10.56,76.76,0,81.23-68.04,91.64-127.32,91.64-28.42,0-58.84-2.42-82.82-13.87,6.71,4.84,14.34,9.36,22.83,13.23,18.67,4.33,39.36,5.65,60,5.65,26.07,0,52.23-2.11,74.28-9.75,12.14-7.23,30.86-20.19,37.76-28.94Z"/>
      <path class="cls-13" d="m372.78,328.14c.46-20.67-3.55-37.62-6.75-47.75,2.6,11.73,4.6,29.43,4.6,56.25s-8.48,48.63-25.23,63.01c3.15-1.91,6.25-4.11,8.95-6.64,12.14-11.4,17.68-30.96,18.43-64.87Z"/>
      <path class="cls-3" d="m355.2,150c-1.14-3.46-2.28-6.91-3.44-10.37l-4.45,1.7c.84,3.35,1.67,6.8,2.48,10.29l5.4-1.62Z"/>
      <path class="cls-3" d="m360.32,202.7l10.91-1.07c-.37-1.28-.72-2.56-1.09-3.83-.75-2.59-1.53-5.17-2.3-7.75l-9.58,1.57c.85,4.39,1.55,8.19,2.06,11.09Z"/>
      <path class="cls-3" d="m355.36,177.08l8.04-1.51c-1.13-3.66-2.28-7.31-3.45-10.96l-6.84,1.77c.79,3.66,1.55,7.25,2.26,10.7Z"/>
      <path class="cls-3" d="m363.92,228.34l14.27-.35c-.68-2.91-1.39-5.82-2.12-8.72-.3-1.16-.62-2.32-.93-3.48l-12.57,1.1c.53,3.79.99,7.65,1.36,11.46Z"/>
      <path class="cls-3" d="m364.38,250.46l8.64-.09c.77-.41,1.53-.84,2.26-1.31,1.53-.99,3.01-2.11,4.12-3.48.96-1.17,1.56-2.53,1.51-3.92l-16.18.4c.03,3.02-.09,5.83-.34,8.4Z"/>
      <path class="cls-3" d="m346.84,125.14c-1.12-3.26-2.27-6.52-3.43-9.77l-3.08,1.68c1,2.83,2.02,6.07,3.05,9.63l3.45-1.53Z"/>
      <path class="cls-3" d="m333.57,325.85c.25-2.33.47-4.63.69-6.88l-3.08.02c-.15,2.25-.31,4.55-.48,6.87l2.87-.02Z"/>
      <path class="cls-3" d="m336.67,280.77l3.53-.03c.8-2.24,1.68-4.29,2.61-6.19l-3.48.03c-.96,1.93-1.85,3.99-2.66,6.18Z"/>
      <path class="cls-3" d="m344.86,265.67l3.56-.03c1.94-2.42,3.95-4.38,5.93-5.99l-3.87.04c-1.89,1.65-3.79,3.63-5.62,5.98Z"/>
      <path class="cls-3" d="m334.98,310.81c.19-2.3.37-4.51.55-6.64l-3.33.03c-.17,2.11-.32,4.34-.48,6.64l3.26-.03Z"/>
      <path class="cls-3" d="m336.48,295.78c.35-2.25.75-4.39,1.21-6.41l-3.54.03c-.46,2.05-.83,4.18-1.13,6.4l3.46-.03Z"/>
      <path class="cls-3" d="m347.87,297.12c-.4-3.51-.85-6.62-1.35-9.37-1.9,7.83-2.52,15.94-3.24,24.58-.97,11.72-4.82,39.94-6.54,50.05-.79,4.66-3.03,11.33-5.66,17.95,2.8-2.61,5.26-5.47,7.42-8.58,1.72-4.93,3.67-11.84,4.31-19.3,1.09-12.8.98-38.97,5.05-55.33Z"/>
      <path class="cls-3" d="m370.42,259.35c-.67.21-1.53.5-2.49.82,8.64,18.25,9.94,36.66,10.76,73.12.87,38.53-8.34,51.44-16.67,62.01-6.91,8.75-25.62,21.71-37.76,28.94,33.4-11.57,57.4-35.85,57.4-84.88s-6.42-71.62-11.24-80.02Z"/>
      <g>
        <path class="cls-15" d="m140.75,334.75c0,39.62,19,59.52,44.77,69.32-2.85-3.36-5.45-7.39-7.81-12.08-20.89-12.04-31.48-32.59-31.48-61.11,0-30.21,2.88-47.03,6.09-56.41-.95-1.73-1.95-3.3-2.98-4.71-3.83,7.68-8.58,25.23-8.58,65Z"/>
        <path class="cls-15" d="m234.03,291.69l-.55-8.54c-2.99-.74-5.91-1.7-8.76-2.84l-.08,8.26c3.04,1.27,6.18,2.33,9.39,3.12Z"/>
        <path class="cls-15" d="m249.98,413.1c12.06,0,24.55-.5,36.58-2.19v-7.32c-10.61,1.65-22.71,2.45-36.58,2.45-9.69,0-18.48-.41-26.53-1.21l-.07,7.19c8.87.79,17.84,1.08,26.6,1.08Z"/>
        <path class="cls-15" d="m249.98,401.8c13.96,0,26.04-.82,36.58-2.51v-14.22c-10.2,2.17-22.24,3.21-36.58,3.21-9.82,0-18.53-.51-26.34-1.52l-.14,13.81c8,.81,16.78,1.23,26.49,1.23Z"/>
        <path class="cls-15" d="m156.24,352.34c3.94,10,11.3,20.83,16.39,27.37-.29-.85-.59-1.69-.87-2.57-7.02-22.02-9.67-49.38-11.61-73.29-.79-9.73-2.66-17.45-5.11-23.57-1.37,5.2-2.65,12.38-3.51,22.24-.55,18.2,1.24,41.02,4.7,49.82Z"/>
        <path class="cls-15" d="m322.76,159.73l27.04-8.11c-.81-3.49-1.64-6.94-2.48-10.29l-23.42,8.95c-.4,3.47-.81,6.71-1.14,9.45Z"/>
        <path class="cls-15" d="m133.54,336.64c0,32.69,11.79,55,36.04,68.22,7.4,4.04,15.91,7.21,25.76,9.57-2.93-2.33-5.84-5.21-8.46-8.68-27.03-9.66-47.21-29.83-47.21-71s4.88-58.27,8.9-65.99c-1.39-1.79-2.82-3.3-4.24-4.59-3.87,5.58-10.8,22.55-10.8,72.48Z"/>
        <path class="cls-15" d="m327.61,388.55c-2.08,4.66-4.14,8.79-5.74,11.55-.21.37-.46.74-.73,1.11,22.29-10.63,38.06-30.37,38.06-66.46s-3.66-52.92-7.14-61.88c-1.01,1.91-1.99,4.08-2.96,6.55,2.57,10,4.62,25.96,4.62,51.45s-8.78,45.32-26.12,57.67Z"/>
        <path class="cls-15" d="m324.68,197.11c-1.77,3.29-3.67,6.06-5.48,9.63l41.12-4.03c-.51-2.9-1.21-6.69-2.06-11.09l-33.58,5.5Z"/>
        <path class="cls-15" d="m249.98,384.01c14.48,0,26.5-1.08,36.58-3.31v-95.75c-5.1,3.43-10.73,5.99-16.63,7.77-1.47,13.44-3.15,29.41-4,39.88-1.72,21.13.22,19.85.69,29.12.4,7.87-.11,10.06-7.75,12.13-1.24.47-2.73.83-4.46,1.06-.1.02-.19.04-.3.07,0,0,.07-.02.12-.04-1.29.16-2.66.28-4.25.28-18.94,0-15.6-12.43-11.63-16.13l-4.18-65.21c-3.27-.77-6.46-1.8-9.56-3.06l-.94,91.66c7.74,1.02,16.45,1.52,26.3,1.52Z"/>
        <path class="cls-15" d="m286.55,271.8v-8.45c-4.51,4.19-9.36,7.13-14.34,9-.22,1.89-.49,4.32-.81,7.14,5.39-1.84,10.51-4.4,15.15-7.69Z"/>
        <path class="cls-15" d="m222.16,239.12c5.45,8.27,8.32,5.08,12.15,13.16,3.45,7.28,12.25,9.3,17.63,11.24.41-.02.84-.02,1.23-.04,5.37-1.37,10.42-3.86,12.14-8.44,2.92-7.77,9.29-11.59,15.94-22.78,6.65-11.18,12.34-36.56,15.34-45.77.47-1.45,1.07-3.15,1.71-4.99-.65-.34-1.33-.69-2.09-1.07-2.1.52-9.45,1.18-16.15,1.18-7.75,0-17.24-1.31-17.8-2.64-1.97-4.74,8.46-14.98,23.08-11.98,8.77,1.8,11.27,6,11.78,9.19.91.44,1.74.86,2.52,1.26.89-2.78,1.74-5.76,2.37-8.8-.77-1.2-1.58-2.38-2.48-3.45-1.37-1.58-2.91-2.97-4.6-4.11-3.36-2.29-7.36-3.4-11.44-3.44-4.1-.06-8.25.87-12.22,2.31-1.99.72-3.93,1.59-5.82,2.57-.95.48-1.84,1.05-2.8,1.51-.97.45-1.96.83-3.17.98h-.09c-.97.13-1.84-.56-1.96-1.53-.05-.38.03-.74.2-1.05.62-1.15,1.48-1.99,2.43-2.69,0,0,9.01-7.88,21.56-8.42,8.83-.38,14.79,4.38,17.94,8.62.97.98,1.88,2.01,2.69,3.1.18.25.33.53.5.79.42-3.97.26-7.85-.96-11.27-7.75-6.07-22.84-12.68-51.85-12.68-24.93,0-39.58,4.88-48.13,10.11-1.32,2.31-2.11,5.14-2.37,8.56,16.41-11.7,24.64-6.56,32.25-2.81.09.04.14.08.23.12,1.65.64,3.27,1.33,4.85,2.13,1.04.54,2.1,1.06,3.06,1.75.95.7,1.82,1.55,2.43,2.69.46.86.14,1.93-.72,2.39-.33.18-.7.24-1.05.2h-.09c-1.21-.16-2.21-.54-3.17-.99-.96-.46-1.85-1.03-2.8-1.51-1.88-.98-3.83-1.85-5.82-2.57-3.97-1.44-8.12-2.37-12.21-2.31-4.09.03-8.08,1.14-11.44,3.44-1.68,1.14-3.23,2.53-4.6,4.11-.27.32-.5.67-.75,1,.33,3.18.96,6.72,1.88,10.63.43-.22.82-.42,1.29-.65.52-3.19,3.01-7.39,11.78-9.19,14.63-3,25.06,7.25,23.08,11.98-.56,1.34-10.04,2.64-17.8,2.64-6.7,0-14.05-.66-16.15-1.18-.41.2-.77.39-1.15.58.85,3.16,1.85,6.52,3.03,10.13,7.89,24.1,11.09,39.7,16.54,47.97Zm28.42,4.42c-13.68-.27-16.96-6.61-16.96-6.61,1.55.46,3.06.9,4.6,1.29,2.79.55,6.77.98,11.76.59,5.66-.45,9.9-.66,12.62-.76,1.92-.46,3.96-1.03,6.14-1.71,0,0-4.34,7.48-18.16,7.21Zm3.11-74.71s3.94,8.21,4.95,13.95c1.01,5.74.18,10.76,1.96,13.59,1.78,2.83,4.71,11.19,4.71,11.19-6.97-4.53-9.81-8.79-10.84-15.11-1.03-6.32-.77-23.62-.77-23.62Zm-20.36,43.3c.02-2.16.26-7.6,2.17-12.36,2.44-6.07,8.46-26.09,8.46-26.09,0,0,.56,3.97-.91,16.36-1.32,11.09-6.16,13.8-5.04,19.8.76-.13,1.59-.18,2.49-.06,3.39.43,6.76-.72,9.47-.72s6.08,1.15,9.47.72c3.39-.43,5.78,1.26,7.14,2.31.28.22.31.46.21.71.63.42.94.78.53.92-1.3.45-5.6,3.06-11.2,2.06-5.6-1-7.29.09-16.66-.7-2.76-.18-5.31-1.08-6.11-1.96h-.02s0-.02,0-.02c-.29-.34-.33-.67,0-.96Zm5.6,15.66c2.11-1.5,7.69-.66,10.57-.16,2.88.5,5.29-.92,8.43-.79,2.31.09,4.42,1.72,6.12,3.04.45.18.89.36,1.34.54,1.58.65,3.12,1.31,4.82,1.69-1.74.33-3.53.04-5.24-.19l-5.01-.93c-.39-.06-.8-.12-1.13-.12-.19-.02-.3,0-.41,0-.14.01-.37.05-.57.08l-2.49.43c-1.7.28-3.37.57-5.26.65-.95.02-1.87-.04-2.77-.15l-2.55-.38-1.25-.19-.62-.09-.54-.06c-.71-.05-1.43,0-2.24.11-1.62.28-3.43.57-5.17.63-1.76.04-3.5-.04-5.22-.31,0,0,7.54-2.63,9.19-3.8Z"/>
        <path class="cls-15" d="m249.98,419.72c36.26,0,61.81-4.72,80.39-14.85,24.25-13.22,36.04-35.54,36.04-68.22,0-45.09-5.65-63.3-9.6-70.51-1.46,1.5-2.81,3.34-4.09,5.56,3.69,8.97,7.55,26.98,7.55,63.06s-17.03,57.92-40.74,68.43c-4.72,5.07-13.47,10.02-21.67,12.17-2.91.86-5.98,1.3-9.19,1.3-1.17,0-2.11-.95-2.11-2.11v-2.54c-12.04,1.67-24.52,2.17-36.58,2.17-8.76,0-17.74-.29-26.61-1.07l-.06,5.61c8.19.68,17.04,1.02,26.67,1.02Z"/>
        <path class="cls-15" d="m325.98,173.41c1.39,2.33,2.66,5.21,2.94,8.64l26.44-4.96c-.71-3.46-1.47-7.04-2.26-10.7l-27.12,7.03Z"/>
        <path class="cls-15" d="m233.34,280.95l-.88-13.73c-2.72-1.74-5.24-3.74-7.55-5.93l-.17,16.76c2.79,1.16,5.66,2.15,8.6,2.9Z"/>
        <path class="cls-15" d="m237.85,97.59c.37-.02.73-.04,1.08-.04,1.77,0,3.03.31,3.9.67.09,0,.18.02.27.02-.37-5.79-.77-11.14-1.15-15.78-3.47.35-6.75.85-9.8,1.41-.14.03-.28.05-.42.08.42,4.56.89,9.65,1.37,14.85.98-.54,2.48-1.07,4.75-1.22Z"/>
        <path class="cls-15" d="m258,82.48c-.11,1.28-.21,2.62-.32,4,.75.19,1.47.46,2.04.71.8-.2,1.88-.41,2.89-.41s1.89.21,2.6.65c1.98,1.21,2.16,3.65.53,7.8.4.45.84,1.01,1.28,1.65.42-4.52.82-8.91,1.19-12.9-.14-.03-.28-.05-.42-.08-3.05-.55-6.32-1.06-9.8-1.41Z"/>
        <path class="cls-15" d="m286.55,282.38v-7.99c-4.75,3.19-9.96,5.64-15.41,7.41-.3,2.65-.62,5.56-.96,8.65,5.83-1.87,11.39-4.53,16.37-8.07Z"/>
        <path class="cls-15" d="m314.25,221.09c-.67,2.78-1.34,5.65-2.14,8.52l51.8-1.28c-.37-3.81-.83-7.67-1.36-11.46l-48.31,4.21Z"/>
        <path class="cls-15" d="m306.3,243.51c-1.71,2.69-3.82,5.25-6.51,7.62l64.59-.67c.26-2.57.37-5.38.34-8.4l-58.42,1.44Z"/>
        <path class="cls-15" d="m126.29,320.51c-.56,28.2,1.13,49.42,12.03,65.57,5.25,7.78,13.19,16.72,23.65,25.09,24.56,13.95,57.44,16.76,88,16.76,58.78,0,126.26-10.3,126.26-90.59,0-48.26-6.06-68.21-10.59-76.39-.55.19-1.12.39-1.75.61-1.36.48-2.61,1.1-3.79,1.85,1.95,3.38,4.09,8.71,5.92,16.97,3.2,10.12,7.21,27.08,6.75,47.75-.75,33.91-6.29,53.47-18.43,64.87-2.7,2.54-5.79,4.73-8.95,6.64-3.89,3.34-8.23,6.32-13.01,8.93-19.23,10.48-45.42,15.37-82.42,15.37-12.64,0-24.02-.57-34.29-1.74-.94.89-4.57.6-9.28-1.27-15.5-2.49-28.24-6.57-38.85-12.36-25.38-13.84-38.25-38.04-38.25-71.94,0-30.64,2.53-53.11,7.53-66.76,1.42-3.87,2.87-6.53,4.19-8.37-1.35-.94-2.62-1.63-3.83-2.23-7.8,15.78-10.37,34.3-10.91,61.23Z"/>
        <path class="cls-15" d="m329.66,106.92l4.72-3.01c-.72-.52-1.47-.97-2.23-1.39-.71,1.07-1.56,2.51-2.49,4.4Z"/>
        <path class="cls-15" d="m308.79,94.5c-1.69-.5-4.31-1.27-8.32-2.44-.22-.06-.47-.14-.7-.2-5.51,15.62-8.1,36.93-8.81,47.49-2.22-.94-4.47-1.86-6.78-2.55-1.01-.37-2.03-.67-3.06-.95,1.72-16.27,5.3-34.38,8.07-46.99-2.22-.6-4.64-1.24-7.31-1.9-.48-.12-.99-.24-1.48-.36-1.59,8.19-3.15,18.04-4.33,27.34.04.08.07.16.11.23,1.31,3.1.47,6.96-1.17,9.14-.4,3.98-.69,7.67-.83,10.87-.88-.16-1.77-.28-2.65-.45-1.43-.24-2.85-.5-4.28-.71-.63-.06-1.25-.12-1.88-.19,0,1.26-.09,2.18-.39,2.95-.15.38-.35.7-.59.98,6.38.56,12.69,1.55,18.86,3.19l2.02.54,1.01.27.99.34,3.96,1.35,3.85,1.62c.9.4,1.77.86,2.65,1.31.04-1.27.13-2.47.13-2.47,2.22-22.13,6.96-38.19,10.94-48.42Z"/>
        <path class="cls-15" d="m178.12,109.39c.58,1.05.99,2.19,1.49,3.29,1.05,2.18,1.67,4.5,2.42,6.78.37,1.14.57,2.32.86,3.47.25,1.16.57,2.32.73,3.49.38,2.33.8,4.67,1.06,6.99.63,4.66,1.05,9.29,1.6,13.9.39,3.58.86,7.14,1.38,10.69.75-1.32,1.86-2.94,3.46-4.71.96-.97,1.98-1.88,3.04-2.72.53-.46,1.1-.87,1.67-1.27l1.71-1.22c1.21-.71,2.37-1.48,3.61-2.13,1.26-.62,2.46-1.32,3.74-1.88l3.85-1.62,3.96-1.36.99-.34,1.01-.27,2.02-.54c6.24-1.66,12.63-2.66,19.09-3.21-.95-.98-1.77-2.27-2.41-3.8-.23.02-.46.04-.68.07-1.43.22-2.86.48-4.28.72-.88.17-1.77.29-2.65.45-.57-12.61-3.37-32.8-6.23-47.58-.49.12-1,.24-1.48.36-2.67.66-5.09,1.3-7.31,1.9,2.77,12.61,6.35,30.72,8.07,46.99-1.03.28-2.05.58-3.06.95-2.31.69-4.56,1.6-6.78,2.55-.71-10.47-3.26-31.49-8.67-47.07-3.39,1.23-6.23,2.41-8.65,3.62,3.87,10.27,8.3,25.83,10.43,47.02-.68.42-1.35.86-2.03,1.27-1.21.8-2.34,1.73-3.5,2.58l-1.63,1.44c-.1.09-.2.18-.29.26-1.31-9.51-4.89-30.62-12.31-45.9-1.75,1.92-3.11,4.05-4.37,6.53l.16.29Z"/>
        <path class="cls-15" d="m325.15,134.77l18.23-8.1c-1.03-3.55-2.05-6.8-3.05-9.63l-15.58,8.51c.41,2.53.51,5.72.4,9.22Z"/>
        <path class="cls-15" d="m329.43,340.9c.24-2.37.45-4.74.65-7.11l-34.81.24c0,2.35-.01,4.71-.02,7.08l34.18-.2Z"/>
        <path class="cls-15" d="m330.7,325.87c.17-2.32.33-4.63.48-6.87l-36.06.28c.06,2.29.11,4.57.14,6.84l35.45-.24Z"/>
        <path class="cls-15" d="m317.71,386.03c.73-1.27,1.47-2.56,2.2-3.89.67-1.22,1.29-2.54,1.87-3.94l-26.69.09c0,2.69.01,5.29.03,7.78l22.59-.04Z"/>
        <path class="cls-15" d="m292.22,275.04c.19,1.94.38,3.99.57,6.13l43.88-.4c.81-2.2,1.7-4.26,2.66-6.18l-47.11.46Z"/>
        <path class="cls-15" d="m350.48,259.69l-59.69.61v1.12c.16,1.4.34,2.99.53,4.77l53.55-.52c1.82-2.35,3.72-4.33,5.62-5.98Z"/>
        <path class="cls-15" d="m324.25,370.98c.7-2.41,1.33-4.94,1.89-7.59l-31.01.15c-.01,2.56-.02,5.08-.03,7.55l29.16-.1Z"/>
        <path class="cls-15" d="m307.99,401.07c1.71-2.38,3.55-5.08,5.46-8.06l-18.25.03c.05,2.91.12,5.6.22,8.02h12.58Z"/>
        <path class="cls-15" d="m301.97,408.98c.3-.37.61-.75.94-1.17h-7.09c.12,1.36.26,2.56.41,3.53,2.02-.57,3.93-1.36,5.74-2.36Z"/>
        <path class="cls-15" d="m331.72,310.84c.16-2.3.31-4.52.48-6.64l-37.7.32c.12,2.18.23,4.38.33,6.6l36.9-.28Z"/>
        <path class="cls-15" d="m333.02,295.81c.29-2.22.67-4.36,1.13-6.4l-40.64.37c.16,2.07.32,4.2.46,6.36l39.05-.33Z"/>
        <path class="cls-15" d="m327.51,355.94c.39-2.41.75-4.86,1.06-7.35l-33.35.19c-.01,2.45-.03,4.89-.04,7.31l32.34-.15Z"/>
        <path class="cls-15" d="m209.17,275.06l-48.15-.47c1.04,2.11,1.88,4.2,2.59,6.18l45.56.42v-6.13Z"/>
        <path class="cls-15" d="m209.17,378.31l-29.22-.1c.82,2.8,1.67,5.42,2.56,7.83l26.66.05v-7.78Z"/>
        <path class="cls-15" d="m209.17,289.8l-42.9-.39c.36,1.67.72,3.84,1.09,6.4l41.81.35v-6.36Z"/>
        <path class="cls-15" d="m209.17,407.82h-8.69c3.23,1.08,6.42,1.65,8.69,1.95v-1.95Z"/>
        <path class="cls-15" d="m209.17,393.06l-23.71-.04c1.53,3.18,3.13,5.88,4.8,8.06h18.91v-8.01Z"/>
        <path class="cls-15" d="m209.17,363.55l-32.84-.15c.54,2.65,1.11,5.18,1.7,7.59l31.14.1v-7.54Z"/>
        <path class="cls-15" d="m209.17,260.31l-61.8-.64c3.05,1.64,5.57,3.7,7.67,6l54.13.53v-5.9Z"/>
        <path class="cls-15" d="m209.17,319.3l-39-.3c.25,2.26.51,4.56.77,6.88l38.23.26v-6.83Z"/>
        <path class="cls-15" d="m209.17,304.55l-40.71-.34c.26,2.11.52,4.33.78,6.64l39.93.3v-6.6Z"/>
        <path class="cls-15" d="m209.17,348.8l-35.41-.21c.37,2.6.75,5.06,1.14,7.35l34.27.16v-7.31Z"/>
        <path class="cls-15" d="m209.17,334.05l-37.31-.25c.29,2.4.58,4.78.87,7.11l36.44.21v-7.07Z"/>
        <path class="cls-15" d="m229.04,171.17c-.44,4.94-2.64,6.7-2.64,6.7,0,0,6.87-.09,6.96-1.94.09-1.85-4.32-4.76-4.32-4.76Z"/>
        <path class="cls-15" d="m213.62,176.63c-.45-.7-.83-1.52-1.07-2.42-.1-.92-.05-1.83.12-2.64.05-.27.18-.5.28-.73-1.89,1.13-5.49,3.52-5.23,5.08.24,1.41,4.39,1.8,7.13,1.9-.43-.31-.9-.67-1.23-1.2Z"/>
        <path class="cls-15" d="m217.24,177.86s-.23-.18-.54-.47c.08.18.16.32.23.47.19,0,.32,0,.32,0Z"/>
        <path class="cls-15" d="m269.62,174.84c-.13-.88-.09-1.76.06-2.55.02-.12.09-.21.12-.32-1.3.99-3.27,2.71-3.21,3.96.06,1.17,2.83,1.64,4.86,1.82-.23-.18-.47-.37-.66-.62-.49-.65-.91-1.43-1.18-2.28Z"/>
        <path class="cls-15" d="m282.71,177.86s9.16.18,9.52-1.94c.35-2.11-6.34-5.73-6.34-5.73.97,4.58-3.17,7.67-3.17,7.67Z"/>
        <path class="cls-15" d="m246.38,133.63c-.38.98-.85,1.86-1.41,2.59.88-.02,1.75-.04,2.63-.05-.57-.51-.96-1.14-1.13-1.95-.04-.19-.06-.39-.08-.59Z"/>
        <path class="cls-15" d="m187.77,196.09l.53,2c.36,1.32.74,2.64,1.19,3.85.23.6.48,1.19.75,1.64.14.22.28.41.37.51.11.11.08.1.07.14-.05.18.73-.36,1.29-.72.61-.38,1.22-.83,2.01-1.13.38-.16.84-.25,1.3-.24-.71-3.32-1.83-8.4-3.08-13.39-.23.18-.45.37-.68.54-1.14.85-2.38,1.66-3.33,2.45-.96.88-1,1.24-.85,2.46.08.58.24,1.17.43,1.87Z"/>
        <path class="cls-15" d="m192.8,217.25c-.06.66-.09,1.32,0,2.12,1.46-1.35,3.05-5.47,3.21-13.81-.09-.42-.25-1.21-.47-2.27-.3.05-.58.19-.86.41-.46.36-.94.84-1.43,1.35-.25.25-.49.52-.77.77-.23.23-.76.69-1.44.81-.54.12-1.09,0-1.53-.2.53,1.43.93,2.85,1.24,4.21.28-.78.59-1.56.99-2.47.81.94,1.14,2.11,1.3,3.2.15,1.1.12,2.16.04,3.13-.07.98-.2,1.87-.28,2.75Z"/>
        <path class="cls-15" d="m183.67,189.47c.42.75.77,1.53,1.08,2.31,0-.02.01-.04.02-.06.48-.99,1.29-1.6,1.96-2.01,1.39-.81,2.7-1.24,4.02-1.78.37-.14.75-.28,1.12-.42-.57-2.24-1.17-4.43-1.76-6.4-.32-.56-.64-1.11-.96-1.65-.81-1.39-1.77-2.78-2.6-3.23-.38-.2-.67-.25-1.23-.12-.54.15-1.2.49-1.85.93-1.32.88-2.64,2.02-4.17,3.06.47-1.79,1.26-3.42,2.5-4.9.62-.73,1.39-1.42,2.47-1.9.55-.23,1.18-.38,1.86-.38.02,0,.03,0,.05,0-.47-.35-.95-.55-1.45-.55-.94,0-2.7.46-5.74,2.67-2.45,1.78-1.32,9.49,2.92,17.98-.24-.9-.45-1.8-.61-2.71-.24-1.37-.42-2.72-.5-4.26,1.25.92,2.13,2.16,2.85,3.41Z"/>
        <path class="cls-15" d="m308.22,208.17c.13-.51.34-1.06.54-1.61-.59-.16-1.07-.54-1.28-.74-.27-.25-.52-.52-.77-.77-.14-.14-.27-.28-.41-.41-.67,1.77-1.37,3.55-2.1,5.33.39,4.05,1.19,6.68,2.06,8.21.16-1.04.37-2.31.61-3.67-.08-.97-.1-2.03.04-3.13.16-1.09.49-2.26,1.3-3.2Z"/>
        <path class="cls-15" d="m306.96,202.88c.36.21.69.43,1.01.64.56.36,1.34.9,1.29.72,0-.03-.04-.03.07-.14.09-.1.24-.29.37-.51.27-.46.52-1.05.75-1.64.45-1.22.83-2.53,1.19-3.85l.53-2c.19-.69.34-1.29.42-1.87.15-1.23.11-1.59-.85-2.46-.24-.2-.51-.41-.78-.61-1.17,3.7-2.51,7.67-4.02,11.73Z"/>
        <path class="cls-15" d="m320.63,180.11c-.07-.54-.28-1.01-.54-1.45.19.48.41.94.54,1.45Z"/>
        <path class="cls-15" d="m315.24,176.36c-.85,3.26-2.05,7.61-3.58,12.58.51.22,1.02.47,1.54.77.68.41,1.48,1.02,1.96,2.01.01.02.01.04.02.06.31-.79.66-1.56,1.08-2.31.48-.84,1.09-1.64,1.78-2.38,1.43-3.12,2.88-4.47,2.56-6.98-1.53-1.03-2.85-2.18-4.17-3.06-.41-.28-.83-.51-1.21-.69Z"/>
        <path class="cls-15" d="m247.37,119.38c-.17,0-.33,0-.49,0,.05.79.12,1.72.23,2.77.21-.02.43-.05.64-.08-.08-.82-.21-1.72-.38-2.7Z"/>
        <path class="cls-15" d="m270.7,120.01c-1.01.38-2.37.39-3.85.1-.33.9-.63,1.75-.88,2.53,1.44.28,2.94.35,4.24-.01.66-.2,1.22-.51,1.69-.95.48-.45.9-1.02,1.18-1.67.59-1.28.74-2.81.28-4.2-.44-1.4-1.61-2.55-3.09-3.28,1.6.21,3.25,1.16,4.11,2.76-.04-.11-.06-.22-.1-.32-.77-1.83-2.43-2.91-4.84-3.22-.29,1.36-.64,2.66-1.02,3.87,1.74-.08,3.18,0,3.86.93.21.29.52.92.16,1.85-.29.74-.9,1.31-1.75,1.63Z"/>
        <path class="cls-15" d="m232.96,110.74c.38,1.3,1.1,2.3,1.76,3.39,2.49-1.01,6.35-1.94,10.01-.11.55-1.38,1.13-3.59.64-6.16-.07-.35-.14-.69-.2-1.03,0,0-.01,0-.02.01-.49.19-1.26-.63-1.73-1.84-.47-1.21-.46-2.34.02-2.53.18-.07.41,0,.64.19-.38-1.02-.8-1.62-1.29-1.62-.13,0-.27.05-.42.14,0,0-.87-.81-3.45-.81-.28,0-.58.01-.9.03-3.27.22-4.2,1.34-4.2,1.34-.06-.03-.12-.03-.18-.05-.17.57-.31,1.12-.45,1.71.27.41.32,1.29.08,2.27-.14.57-.36,1.06-.6,1.42-.07,1.34-.03,2.61.26,3.65Zm1.64-3.98c.2-.46.43-.92.73-1.34.3-.44.57-.8,1.07-1.26l.76-.69.97.52c.53.28.95.58,1.38.93.42.35.82.73,1.17,1.18.35.44.67.92.9,1.46.21.55.4,1.12.34,1.74-.56-.26-1.01-.49-1.48-.68-.46-.2-.9-.4-1.33-.61-.43-.2-.85-.42-1.27-.65-.08-.05-.17-.1-.26-.15l-.07.06c-.31.29-.66.58-1,.87-.36.29-.72.58-1.13.86-.41.28-.82.57-1.33.82-.07-1.12.17-2.12.55-3.06Z"/>
        <path class="cls-15" d="m241.39,115.9l1.23,18.77c1.6-1.96,2.47-5.87,1.93-10.18-.47-3.73-.57-6.26-.58-7.67-.83-.5-1.71-.8-2.58-.93Z"/>
        <path class="cls-15" d="m236.76,133.41c.37.62.78,1.16,1.22,1.57l-1.22-18.59c-.32.1-.58.22-.86.33.2.76.31,1.63.25,2.67-.19,3.13.34,10.35.62,14.03Z"/>
        <path class="cls-15" d="m256.26,94.73c2.34,1.12,5.41.39,6.63.01.3-.75.68-1.75.92-2.67-.21.18-.46.29-.73.26-.64-.05-1.1-.78-1.03-1.63.04-.46.23-.86.5-1.12-1.36.02-3.09.58-3.09.58,0,0-1.31-.67-2.55-.98.01.3,0,.57,0,.85,0,.08.03.16.02.24,0,.03-.02.05-.02.08-.03,2.03-.37,3.49-.66,4.36Z"/>
        <path class="cls-15" d="m259.51,125.16l-.88,10.48c.08,0,.17,0,.26,0,1.7,0,3.19-.2,3.46-.9.45-1.13-.04-5.02.19-9.33l-3.04-.25Z"/>
        <path class="cls-15" d="m263.89,97.38c-.47.16-1.21.36-2.1.52l-.93,11.15c2.03-.22,4.2-.99,6.4-2.6-.02-4.26-1.95-7.37-3.37-9.08Z"/>
        <path class="cls-15" d="m251.72,121.68l2.12.18.9-10.73c-1.7-.54-3.18-1.29-4.4-2.02-.01,1,.1,2.23.38,3.88.51,2.95.84,5.92.99,8.69Z"/>
        <path class="cls-15" d="m250.9,106.18c1.04.72,2.41,1.53,4.07,2.12l.89-10.69c-.33-.11-.65-.25-.96-.41-.71,1.2-1.68,3.03-2.43,5.24-.56,1.67-1.16,2.66-1.58,3.74Z"/>
        <path class="cls-15" d="m250.76,134.7c.58.18,1.24.34,1.97.45l.88-10.49-1.79-.15c0,2.22-.12,4.24-.42,5.89-.34,1.9-.51,3.32-.63,4.3Z"/>
        <path class="cls-15" d="m266.92,110c-2.17,1.19-4.29,1.74-6.3,1.88l-.88,10.48,3.3.28c.96-3.44,3.02-7.6,3.87-12.63Z"/>
        <path class="cls-15" d="m185.72,162.28c-.61-2.98-1.16-5.96-1.67-8.96l-19.75-7.54c-.93,2.92-1.89,6-2.87,9.21l24.29,7.28Z"/>
        <path class="cls-15" d="m174.94,182.78c-.69-3.59-.55-6.77.89-8.89l-18.61-4.82c-.95,3.23-1.9,6.52-2.84,9.85l20.56,3.86Z"/>
        <path class="cls-15" d="m181.64,137.81c-.5-3.25-1.03-6.47-1.67-9.65l-8.16-4.46c-.85,2.21-1.87,5.04-3.02,8.4l12.85,5.71Z"/>
        <path class="cls-15" d="m186.44,207.29c-.63-1.65-1.45-3.29-2.55-4.84-.93-1.31-1.88-2.8-2.8-4.39l-30.63-5.01c-.95,3.5-1.87,6.99-2.76,10.44l38.75,3.8Z"/>
        <path class="cls-15" d="m209.17,251.22v-7.33l-70.13-1.73c-.51,3.06-.91,5.84-1.18,8.33l71.31.73Z"/>
        <path class="cls-15" d="m206.59,230.08c-.48-.96-.95-1.93-1.41-2.92-2.94-.38-8.12-1.41-12.91-4.14-.19.02-.38.05-.58.05-.07,0-.14,0-.21,0-.91-.04-1.49-.63-1.9-1.63l-45.38-3.96c-.9,3.8-1.75,7.49-2.51,11l64.89,1.6Z"/>
        <path class="cls-15" d="m255.6,274.23c2.12-.97,4.26-1.89,6.47-2.66-1.13.3-2.25.64-3.36,1.01-1.11.36-2.21.76-3.31,1.16-2.14.79-4.25,1.66-6.35,2.57-1.96-.78-3.92-1.54-5.91-2.23-2.24-.78-4.48-1.52-6.78-2.12,2.15,1.01,4.32,1.94,6.49,2.87,2.16.95,4.35,1.84,6.53,2.73,2.19.88,4.38,1.76,6.6,2.58l3.32,1.23c1.12.38,2.23.79,3.36,1.15-2.09-1.13-4.22-2.14-6.37-3.13-1.96-.91-3.96-1.75-5.96-2.58.71-.37,1.41-.74,2.12-1.09,1.04-.52,2.09-1.02,3.15-1.51Z"/>
        <path class="cls-15" d="m255.99,294.73c-1.86-.87-3.75-1.66-5.64-2.45.66-.34,1.31-.69,1.98-1.02.99-.5,2-.98,3.01-1.44,2.02-.93,4.07-1.81,6.17-2.55-1.06.28-2.11.6-3.15.94-.02,0-.04.01-.07.02-1.02.33-2.04.69-3.05,1.06-.04.02-.08.03-.13.05-2.02.75-4.02,1.56-6,2.41-.01,0-.02.01-.03.02-1.87-.74-3.74-1.47-5.64-2.12-2.14-.74-4.29-1.44-6.48-2,2.05.97,4.12,1.87,6.19,2.76,2.07.9,4.15,1.76,6.23,2.62,2.09.84,4.18,1.68,6.3,2.46.17.06,3,1.11,3.18,1.17,1.07.36,2.13.75,3.22,1.09-1.99-1.09-4.03-2.06-6.08-3.01Z"/>
        <path class="cls-15" d="m255.69,310.06c-1.76-.82-3.54-1.58-5.33-2.31.61-.32,1.22-.64,1.83-.95.95-.48,1.9-.94,2.86-1.39,1.92-.89,3.87-1.73,5.87-2.44-1.01.27-2.02.57-3.02.89-.02,0-.04.01-.06.02-.98.32-1.95.66-2.92,1.01-.04.01-.08.03-.12.04-1.93.71-3.84,1.48-5.73,2.29-1.77-.7-3.55-1.39-5.36-2.01-2.04-.7-4.09-1.36-6.18-1.89,1.95.93,3.91,1.8,5.88,2.65,1.97.86,3.95,1.68,5.94,2.49,1.99.8,3.99,1.6,6,2.34.34.13,2.68.99,3.03,1.11,1.02.34,2.03.7,3.07,1.02-1.89-1.04-3.83-1.98-5.78-2.89Z"/>
        <path class="cls-15" d="m255.39,325.38c-1.65-.77-3.33-1.49-5.01-2.19.56-.29,1.12-.6,1.69-.88.9-.45,1.8-.89,2.71-1.32,1.83-.85,3.68-1.65,5.58-2.33-.97.26-1.93.54-2.88.85-.02,0-.04.01-.06.02-.93.3-1.86.62-2.78.96-.04.01-.08.03-.12.04-1.82.67-3.62,1.39-5.41,2.15-1.68-.67-3.37-1.32-5.08-1.9-1.94-.67-3.89-1.28-5.88-1.77,1.85.89,3.71,1.73,5.58,2.54,1.87.82,3.75,1.6,5.64,2.37,1.89.76,3.79,1.51,5.71,2.22.51.19,2.36.87,2.88,1.04.97.33,1.94.66,2.92.96-1.79-1-3.63-1.9-5.48-2.76Z"/>
        <path class="cls-15" d="m255.1,340.7c-1.55-.72-3.12-1.4-4.7-2.05.52-.27,1.03-.55,1.55-.81.85-.43,1.7-.85,2.57-1.26,1.73-.81,3.48-1.57,5.28-2.22-.92.24-1.83.51-2.74.8l-.06.02c-.89.28-1.77.59-2.65.9l-.11.04c-1.72.62-3.41,1.3-5.1,2.02-1.59-.63-3.19-1.24-4.81-1.8-1.83-.63-3.69-1.2-5.58-1.66,1.75.86,3.51,1.66,5.28,2.43,1.77.78,3.55,1.52,5.34,2.25,1.79.72,3.59,1.43,5.41,2.1.69.25,2.04.75,2.73.98.92.31,1.84.62,2.77.9-1.7-.96-3.43-1.82-5.19-2.64Z"/>
        <path class="cls-15" d="m254.8,356.03c-1.45-.68-2.91-1.31-4.38-1.92.47-.25.94-.5,1.41-.74.8-.41,1.61-.81,2.42-1.2,1.63-.77,3.29-1.49,4.98-2.11-.87.23-1.74.48-2.61.76-.86.27-1.72.56-2.58.87-1.65.59-3.27,1.24-4.89,1.92-1.5-.59-3.01-1.17-4.54-1.69-1.73-.59-3.49-1.12-5.28-1.55,1.65.82,3.31,1.58,4.98,2.32,1.67.73,3.36,1.44,5.05,2.13,1.7.68,3.39,1.35,5.11,1.98,1.72.63,3.45,1.22,5.21,1.75-1.6-.91-3.23-1.74-4.89-2.52Z"/>
        <path class="cls-15" d="m249.98,373.03c.42-2.21.51-4.43.53-6.64-.02-2.21-.11-4.43-.53-6.64-.42,2.21-.51,4.43-.53,6.64.02,2.21.11,4.43.53,6.64Z"/>
        <path class="cls-15" d="m246.36,372.38c.42-2,.51-3.99.53-5.99-.02-2-.11-4-.53-5.99-.42,2-.51,3.99-.53,5.99.02,2,.11,4,.53,5.99Z"/>
        <path class="cls-15" d="m242.18,372.08c.42-1.9.51-3.8.53-5.69-.02-1.9-.11-3.8-.53-5.7-.42,1.9-.51,3.8-.53,5.7.02,1.9.11,3.8.53,5.69Z"/>
        <path class="cls-15" d="m237.75,366.38c.02,1.55.11,3.1.53,4.65.42-1.55.51-3.1.53-4.65-.02-1.55-.11-3.1-.53-4.65-.42,1.55-.51,3.1-.53,4.65Z"/>
        <path class="cls-15" d="m253.57,366.38c.02,2,.11,4,.53,5.99.42-2,.51-3.99.53-5.99-.02-2-.11-4-.53-5.99-.42,2-.51,3.99-.53,5.99Z"/>
        <path class="cls-15" d="m258.29,372.08c.42-1.9.51-3.8.53-5.69-.02-1.9-.11-3.8-.53-5.7-.42,1.9-.51,3.8-.53,5.7.02,1.9.11,3.8.53,5.69Z"/>
        <path class="cls-15" d="m262.19,361.73c-.42,1.55-.51,3.1-.53,4.65.02,1.55.11,3.1.53,4.65.42-1.55.51-3.1.53-4.65-.02-1.55-.11-3.1-.53-4.65Z"/>
        <path class="cls-13" d="m196.8,170.43l-.03.05c-.4.68-1.28.91-1.97.51-.64-.38-.88-1.17-.58-1.82.95-2.12,2.05-4.2,3.45-6.12,1.41-1.91,3.06-3.7,5-5.19,1.93-1.49,4.12-2.68,6.44-3.49,2.32-.81,4.76-1.24,7.18-1.37,4.86-.23,9.61.69,14.05,2.23.55.19,1.08.42,1.63.63-.09-.04-.14-.07-.23-.12-7.61-3.74-15.84-8.88-32.25,2.81.26-3.42,1.05-6.25,2.37-8.56-9.83,6-11.6,12.45-11.6,12.45,0,0,1.32,7.61,3.95,18.43,1.43-.91,3.86-2.32,7.33-4.06-.92-3.91-1.55-7.45-1.88-10.63-1.03,1.34-1.98,2.76-2.85,4.25Z"/>
        <path class="cls-13" d="m224.38,247.98c4.84,4.16,6.74,15.62,25.6,15.62.69,0,1.31-.04,1.96-.07-5.38-1.94-14.18-3.96-17.63-11.24-3.83-8.08-6.7-4.89-12.15-13.16-5.45-8.27-8.65-23.87-16.54-47.97-1.18-3.62-2.18-6.97-3.03-10.13-4.22,2.16-6.55,3.69-7.3,4.21,5.39,21.01,15.1,50.72,29.09,62.75Z"/>
        <path class="cls-13" d="m157.14,274.55c.93,1.9,1.81,3.95,2.61,6.19l3.85.03c-.71-1.98-1.55-4.07-2.59-6.18l-3.88-.04Z"/>
        <path class="cls-13" d="m176.56,378.2c.95,2.78,1.94,5.39,2.99,7.83h2.95c-.89-2.4-1.74-5.02-2.56-7.82h-3.38Z"/>
        <path class="cls-13" d="m162.26,289.38c.46,2.02.86,4.16,1.21,6.41l3.89.03c-.37-2.56-.74-4.74-1.09-6.4l-4-.04Z"/>
        <path class="cls-13" d="m209.17,412.35v-2.58c-2.27-.3-5.46-.87-8.69-1.95h-4.69c4.05,2.69,8.5,4.2,13.38,4.53Z"/>
        <path class="cls-13" d="m182.97,393.01c1.7,3.05,3.51,5.74,5.45,8.06h1.84c-1.67-2.18-3.27-4.88-4.8-8.06h-2.49Z"/>
        <path class="cls-13" d="m172.39,363.38c.6,2.58,1.25,5.12,1.95,7.6h3.68c-.59-2.4-1.15-4.93-1.7-7.58l-3.93-.02Z"/>
        <path class="cls-13" d="m147.37,259.67l-1.77-.02c1.98,1.6,3.99,3.57,5.93,5.99l3.51.03c-2.1-2.3-4.63-4.37-7.67-6Z"/>
        <path class="cls-13" d="m165.72,318.97c.22,2.28.45,4.58.7,6.88l4.51.03c-.26-2.31-.52-4.61-.77-6.88l-4.44-.03Z"/>
        <path class="cls-13" d="m164.42,304.17c.18,2.19.36,4.4.56,6.64l4.26.03c-.26-2.31-.52-4.53-.78-6.64l-4.03-.03Z"/>
        <path class="cls-13" d="m169.47,348.57c.41,2.48.86,4.93,1.34,7.36l4.09.02c-.39-2.29-.77-4.76-1.14-7.35l-4.28-.02Z"/>
        <path class="cls-13" d="m167.34,333.77c.3,2.38.61,4.75.94,7.12l4.44.03c-.3-2.33-.59-4.71-.87-7.11l-4.51-.03Z"/>
        <path class="cls-13" d="m122.66,337.35c0-53.17,7.25-72.33,12.06-79.19-1.56-.59-2.84-.91-3.71-1.08-4.85,6.6-12.71,25.98-12.71,82.3s31.05,79.54,71.68,88.98c-8.48-3.87-16.12-8.38-22.83-13.23-26.04-12.43-44.49-35.49-44.49-77.78Z"/>
        <path class="cls-13" d="m138.32,386.08c-10.9-16.15-12.59-37.37-12.03-65.57.54-26.93,3.11-45.45,10.91-61.23-.48-.24-.97-.5-1.42-.69-4.54,6.35-12.07,24.99-12.07,78.76,0,38.55,15.58,60.94,38.26,73.82-10.46-8.37-18.4-17.31-23.65-25.09Z"/>
        <path class="cls-13" d="m290.78,341.12l4.47-.03c.01-2.37.02-4.73.02-7.08l-4.49.03v7.07Z"/>
        <path class="cls-13" d="m290.78,326.14l4.47-.03c-.03-2.27-.07-4.55-.14-6.84l-4.33.03v6.83Z"/>
        <path class="cls-13" d="m290.78,386.08h4.33c-.02-2.5-.03-5.1-.03-7.79h-4.3v7.79Z"/>
        <path class="cls-13" d="m290.78,275.06v6.13l2.01-.02c-.19-2.14-.38-4.18-.57-6.13h-1.44Z"/>
        <path class="cls-13" d="m290.78,266.2h.53c-.19-1.78-.37-3.38-.53-4.78v4.78Z"/>
        <path class="cls-13" d="m290.78,371.1h4.31c0-2.48.02-5,.03-7.56l-4.34.02v7.54Z"/>
        <path class="cls-13" d="m290.78,401.07h4.63c-.1-2.42-.17-5.11-.22-8.02h-4.41v8.02Z"/>
        <path class="cls-13" d="m290.78,412.35c1.91-.14,3.7-.51,5.44-1-.16-.97-.29-2.16-.41-3.53h-5.03v4.53Z"/>
        <path class="cls-13" d="m290.78,311.15l4.04-.03c-.1-2.22-.21-4.42-.33-6.6l-3.71.03v6.6Z"/>
        <path class="cls-13" d="m290.78,296.17l3.19-.03c-.15-2.17-.3-4.29-.46-6.36l-2.72.02v6.36Z"/>
        <path class="cls-13" d="m290.78,356.11l4.39-.02c.02-2.42.03-4.86.04-7.31l-4.43.02v7.31Z"/>
        <path class="cls-13" d="m233.34,213.12h.02s-.02-.02-.02-.03c0,0,0,.03,0,.03Z"/>
        <g class="cls-10">
          <path class="cls-11" d="m238.01,209.84c-1.12-6,3.72-8.7,5.04-19.8,1.47-12.39.91-16.36.91-16.36,0,0-6.01,20.02-8.46,26.09-1.91,4.76-2.15,10.2-2.17,12.36.02-.02.01-.03.04-.05.99-.77,2.55-1.88,4.64-2.24Z"/>
        </g>
        <path class="cls-13" d="m239.6,228.88c.85-.26,1.84-.49,2.84-.5h.74s.65.05.65.05l1.3.1c1.76.15,3.36.4,4.89.34,1.53-.06,3.25-.29,4.94-.46.85-.08,1.71-.18,2.6-.23.23-.01.42-.03.71-.03.33,0,.63.02.87.07.52.09.95.22,1.39.35,1.24.38,2.39.84,3.52,1.3-1.7-1.31-3.81-2.94-6.12-3.04-3.13-.13-5.54,1.29-8.43.79-2.88-.5-8.46-1.34-10.57.16-1.65,1.17-9.19,3.8-9.19,3.8,1.69-.42,3.37-.76,4.99-1.22,1.65-.42,3.15-.98,4.86-1.5Z"/>
        <path class="cls-13" d="m262.6,238.04c-2.72.1-6.96.32-12.62.76-4.99.4-8.97-.04-11.76-.59,6.53,1.68,13.39,2.47,24.38-.18Z"/>
        <path class="cls-13" d="m269.62,155.23c4.44-1.54,9.19-2.46,14.05-2.23,2.42.13,4.85.56,7.18,1.37,2.32.81,4.51,2,6.44,3.49.83.64,1.58,1.36,2.31,2.09-3.16-4.24-9.11-9.01-17.94-8.62-12.56.54-21.56,8.42-21.56,8.42.96-.69,2.02-1.21,3.05-1.75,2.09-1.06,4.25-1.99,6.47-2.76Z"/>
        <path class="cls-3" d="m331.72,340.88c.34-2.39.66-4.76.95-7.12l-2.58.02c-.2,2.37-.41,4.74-.65,7.11h2.29Z"/>
        <path class="cls-3" d="m317.71,386.03h2.62c1.09-2.5,2.1-5.12,3.04-7.84h-1.58c-.59,1.4-1.21,2.72-1.87,3.94-.73,1.34-1.46,2.63-2.2,3.89Z"/>
        <path class="cls-3" d="m325.62,370.98c.7-2.48,1.35-5.02,1.96-7.6h-1.43c-.56,2.66-1.19,5.19-1.89,7.6h1.36Z"/>
        <path class="cls-3" d="m311.36,401.07c2-2.39,3.83-5.1,5.5-8.06h-3.42c-1.91,2.99-3.75,5.68-5.46,8.06h3.38Z"/>
        <path class="cls-3" d="m303.97,407.82h-1.07c-.33.41-.64.8-.94,1.17.68-.37,1.36-.73,2-1.17Z"/>
        <path class="cls-3" d="m329.19,355.93c.48-2.44.93-4.9,1.34-7.36h-1.96c-.32,2.51-.67,4.95-1.06,7.37h1.68Z"/>
        <path class="cls-3" d="m218.83,285.8c1.88,1.04,3.82,1.94,5.8,2.77l.08-8.26c-1.96-.79-3.88-1.64-5.75-2.62l-.14,8.11Z"/>
        <path class="cls-3" d="m216.51,411.31c2.28.28,4.57.5,6.87.7l.07-7.19c-2.29-.23-4.55-.48-6.72-.77-.07,2.54-.14,5.01-.22,7.26Z"/>
        <path class="cls-3" d="m216.84,399.8c2.15.3,4.38.55,6.65.78l.14-13.81c-2.22-.29-4.4-.6-6.48-.97-.08,3.92-.19,8.94-.31,14Z"/>
        <path class="cls-3" d="m217.27,379.89l-.03,1.6c2.06.38,4.21.71,6.43,1l.94-91.66c-1.98-.8-3.93-1.67-5.82-2.67l-1.53,91.72Z"/>
        <path class="cls-3" d="m216.23,418.02c2.29.26,4.66.48,7.07.68l.06-5.61c-2.31-.2-4.61-.42-6.89-.7-.08,2.16-.15,4.08-.23,5.63Z"/>
        <path class="cls-3" d="m224.91,261.29c-2.04-1.94-3.93-4.02-5.57-6.25l-.34,20.28c1.86,1.02,3.78,1.91,5.73,2.72l.17-16.76Z"/>
        <path class="cls-3" d="m266.61,361.73c-.47-9.27-2.41-7.99-.69-29.12.85-10.47,2.53-26.44,4-39.88-1.37.42-2.75.83-4.15,1.16l-4.18,65.21c3.16,2.95,5.89,11.44-2.74,14.76,7.63-2.07,8.15-4.26,7.75-12.13Z"/>
        <path class="cls-3" d="m254.4,374.93c-.06,0-.12.02-.18.03-.05.02-.12.04-.12.04.11-.02.2-.05.3-.07Z"/>
        <path class="cls-3" d="m272.22,272.36c-1.7.64-3.42,1.16-5.15,1.55l-.45,7.04c1.62-.42,3.21-.91,4.79-1.45.32-2.82.6-5.25.81-7.14Z"/>
        <path class="cls-3" d="m265.93,291.69c1.44-.35,2.85-.8,4.26-1.25.34-3.09.67-6,.96-8.65-1.54.5-3.1.97-4.67,1.35l-.55,8.54Z"/>
        <path class="cls-3" d="m302.79,163.83c1.15,1.7,2.13,3.5,2.95,5.34.32.72,0,1.57-.73,1.9-.68.3-1.46.04-1.83-.58l-.03-.05c-.36-.61-.75-1.2-1.13-1.79-.63,3.04-1.48,6.02-2.37,8.8,2.7,1.39,4.66,2.54,5.93,3.33,2.71-10.77,4.11-18.33,4.11-18.33,0,0-1.31-4.74-7.87-9.88,1.22,3.42,1.38,7.3.96,11.27Z"/>
        <path class="cls-3" d="m281.25,232.26c-6.65,11.18-13.02,15.01-15.94,22.78-1.72,4.58-6.77,7.07-12.14,8.44,16.62-1.12,17.46-11.03,22.18-15.29,13.71-12.36,23.58-42.12,29.13-63.1-.83-.57-2.82-1.84-6.17-3.6-.64,1.85-1.24,3.55-1.71,4.99-3.01,9.21-8.69,34.59-15.34,45.77Z"/>
        <path class="cls-13" d="m212.95,170.84c-.11.24-.23.46-.28.73-.17.82-.22,1.72-.12,2.64.24.89.62,1.72,1.07,2.42.33.53.8.89,1.23,1.2.92.04,1.68.04,2.07.04-.07-.15-.15-.3-.23-.47-1.08-1.01-3.38-3.64-2.63-7.19,0,0-.46.25-1.12.64Z"/>
        <path class="cls-13" d="m269.8,171.97c-.03.11-.1.21-.12.32-.15.8-.19,1.67-.06,2.55.27.85.69,1.63,1.18,2.28.18.25.42.44.66.62,1.17.11,2.1.12,2.1.12,0,0-2.2-1.76-2.64-6.7,0,0-.48.32-1.11.8Z"/>
        <path class="cls-13" d="m174.56,384.95c-.67-1.67-1.3-3.44-1.92-5.24-5.09-6.54-12.45-17.37-16.39-27.37-3.46-8.79-5.25-31.61-4.7-49.82-.67,7.7-1.09,17.03-1.09,28.35,0,24.73,7.91,42.5,24.11,54.07Z"/>
        <path class="cls-3" d="m319.04,152.13c-.39,3.03-.8,6.22-1.16,9.06l4.87-1.46c.33-2.74.74-5.98,1.14-9.45l-4.85,1.85Z"/>
        <path class="cls-3" d="m318.87,198.06c-.92,1.59-1.87,3.07-2.8,4.39-1.1,1.55-1.92,3.19-2.55,4.84l5.68-.56c1.81-3.57,3.71-6.34,5.48-9.63l-5.81.95Z"/>
        <path class="cls-3" d="m324.13,173.89c1.44,2.12,1.58,5.3.89,8.89l3.91-.73c-.28-3.43-1.56-6.3-2.94-8.64l-1.85.48Z"/>
        <path class="cls-3" d="m310.36,221.43c-.41,1-.99,1.59-1.9,1.63-.07,0-.14,0-.21,0-.54,0-1.06-.1-1.56-.28-.44,1.33-1.3,3.85-2.49,7.03l7.91-.2c.8-2.88,1.46-5.74,2.14-8.52l-3.89.34Z"/>
        <path class="cls-3" d="m306.3,243.51l-7.92.2c-1.21,2.55-2.5,5.09-3.87,7.48l5.28-.05c2.69-2.37,4.8-4.93,6.51-7.62Z"/>
        <path class="cls-3" d="m324.75,125.56l-2.96,1.62c-.17,3.03-.39,6.51-.66,9.39l4.02-1.79c.11-3.5,0-6.68-.4-9.22Z"/>
        <path class="cls-3" d="m307.16,219.37c.08-.8.05-1.46,0-2.12-.08-.88-.21-1.77-.28-2.75,0,0,0,0,0,0-.24,1.36-.45,2.63-.61,3.67.3.53.6.93.91,1.2Z"/>
        <path class="cls-3" d="m309.21,210.64c.31-1.37.71-2.79,1.24-4.21-.44.2-.99.32-1.53.2-.06-.01-.1-.05-.16-.07-.2.55-.41,1.09-.54,1.61.4.91.72,1.69.99,2.47Z"/>
        <path class="cls-3" d="m318.06,187.09c.34-.36.66-.73,1.07-1.04-.09,1.54-.27,2.89-.51,4.26-.16.91-.37,1.81-.61,2.71,4.24-8.49,5.37-16.2,2.92-17.98-2.18-1.58-3.69-2.26-4.72-2.52-.07.29-.15.6-.23.94.9.47,1.59,1.08,2.15,1.73.89,1.06,1.48,2.23,1.96,3.45.26.44.47.91.54,1.45.32,2.51-1.13,3.87-2.56,6.98Z"/>
        <g class="cls-1">
          <path class="cls-14" d="m305.31,148.47c-.1-.09-.2-.18-.3-.27l-1.63-1.44c-1.16-.85-2.29-1.78-3.5-2.58-.68-.42-1.35-.85-2.03-1.27,0,0-.09,1.21-.13,2.47.36.19.72.38,1.09.56,1.24.65,2.4,1.42,3.61,2.13l1.71,1.22c.57.4,1.15.81,1.68,1.27,1.04.83,2.05,1.72,3,2.67,1.63,1.79,2.75,3.43,3.51,4.77.52-3.55.96-7.12,1.37-10.7l.81-6.93c.26-2.31.53-4.63.88-6.96.29-2.32.73-4.65,1.13-6.97.16-1.17.52-2.31.78-3.47.31-1.15.51-2.32.9-3.45.74-2.27,1.4-4.57,2.46-6.73.51-1.08.92-2.21,1.5-3.26l1.76-3.12c.3-.51.56-1.05.91-1.54l1.05-1.44c.7-.94,1.44-1.86,2.16-2.77-2.48-.93-5.17-1.67-8.06-2.53-9.04,15.32-13.22,39.87-14.66,50.34Z"/>
        </g>
        <path class="cls-3" d="m330.12,101.51c-.08.14-.17.28-.26.42-.56,1-1.1,2.01-1.69,2.99l-.89,1.46c-.29.49-.52,1.01-.78,1.51l-.79,1.55,3.95-2.51c.93-1.89,1.78-3.32,2.49-4.4-.66-.36-1.33-.71-2.03-1.02Z"/>
        <path class="cls-13" d="m233.49,101.65c-.52,0-.88.67-1.14,1.77.2-.2.41-.3.6-.25.11.03.2.12.28.24.13-.59.28-1.14.45-1.71-.06-.01-.12-.04-.18-.04Z"/>
        <path class="cls-13" d="m234.73,114.13c-.67-1.09-1.39-2.09-1.76-3.39-.3-1.03-.33-2.31-.26-3.65-.29.44-.6.7-.88.63,0,0,0,0,0,0-.02.34-.05.68-.07,1.04-.16,2.63.73,4.77,1.46,6.06.41-.21.94-.45,1.52-.69Z"/>
        <path class="cls-13" d="m236.76,133.41c-.28-3.68-.81-10.9-.62-14.03.06-1.04-.04-1.9-.25-2.67-.64.25-1.21.5-1.59.71.18,1.38.41,3.92.43,7.72.02,3.31.83,6.27,2.02,8.27Z"/>
        <path class="cls-13" d="m173.14,108.06c-.26-.5-.48-1.02-.78-1.5l-.91-1.43c-.6-.96-1.17-1.93-1.7-2.95-1.15-1.98-2.32-3.96-3.13-6.35,1.07.61,2.05,1.32,2.97,2.09.93.77,1.85,1.55,2.64,2.45.77.92,1.48,1.88,2.18,2.85l1.03,1.47c.34.5.6,1.04.91,1.55l1.61,2.86c1.26-2.48,2.62-4.61,4.37-6.53-2.69-5.53-5.86-10.32-9.64-13.48,4.39-2.08,8.85-4,13.34-5.84,1.12,2.07,2.83,5.48,4.74,10.26-.15.1-.31.2-.44.29-.72.49-1.19.86-1.46,1.12-.27.25-.37.35-.37.35,2.32-1.31,4.81-2.3,7.27-3.32,2.47-1,4.97-1.93,7.48-2.84,5.02-1.8,10.11-3.4,15.25-4.83,5.14-1.42,10.33-2.68,15.59-3.58,5.25-.91,10.56-1.55,15.9-1.59,5.34.04,10.65.68,15.9,1.59,5.26.9,10.45,2.16,15.59,3.58,5.14,1.43,10.23,3.03,15.25,4.83,2.51.91,5.01,1.84,7.48,2.84,2.46,1.02,4.95,2.01,7.27,3.32,0,0-.1-.11-.37-.35-.27-.26-.74-.63-1.46-1.12-.14-.09-.29-.19-.44-.29,1.91-4.78,3.61-8.2,4.74-10.26,4.49,1.84,8.95,3.76,13.34,5.84-2.72,2.28-5.14,5.41-7.28,9.05,2.89.85,5.57,1.6,8.06,2.53.01-.01.02-.03.03-.04.77-.9,1.67-1.7,2.53-2.51.88-.8,1.77-1.58,2.73-2.28-.95,2.04-2.1,3.85-3.21,5.68.7.31,1.37.65,2.03,1.02.77.42,1.52.87,2.23,1.39l3.91-2.49c-.54-1.36-1.08-2.71-1.66-4.06-.36-.86-.73-1.71-1.14-2.54-.42-.82-.79-1.7-1.46-2.35-.48-.32-1.41-.86-2.7-1.55-11.97-6.84-24.73-12.25-37.73-16.9-6.99-2.51-14.14-4.6-21.42-6.2-7.27-1.58-14.68-2.75-22.21-2.84-7.52.08-14.94,1.25-22.21,2.84-7.28,1.6-14.43,3.69-21.42,6.2-13,4.66-25.77,10.07-37.74,16.92-1.28.69-2.2,1.22-2.68,1.54-.77.51-2.39,3.66-4.59,8.74l12.32,7.84-.51-1Zm119.19-32.74c.25.08.51.16.76.24,4.16,1.35,8.28,2.81,12.37,4.36-1.72,2.53-3.26,5.63-4.63,9.1-2.79-1.29-6.29-2.81-10.68-4.42.92-4.04,1.69-7.24,2.19-9.28Zm-22.75-6.05c.73.14,1.47.29,2.2.44,1.79.41,3.6.74,5.38,1.23l5.34,1.4c.37.11.74.22,1.11.33-.7,2.33-1.45,5.4-2.21,8.99-3.69-1.13-7.85-2.22-12.54-3.24-.04,0-.09-.02-.13-.03.35-3.79.64-6.94.84-9.13Zm-19.6-2.16c3.13.01,6.26.22,9.38.57-.21,2.06-.51,5.16-.86,9.05-2.69-.3-5.52-.49-8.52-.52-3,.03-5.83.22-8.52.52-.35-3.89-.65-6.98-.86-9.05,3.12-.35,6.25-.56,9.38-.57Zm-32.53,5.24l5.35-1.4c1.78-.49,3.59-.81,5.38-1.23.73-.15,1.47-.3,2.2-.44.2,2.18.49,5.34.85,9.13-.04,0-.09.02-.13.03-4.69,1.01-8.85,2.11-12.54,3.24-.77-3.58-1.52-6.66-2.21-8.99.37-.11.74-.22,1.11-.33Zm-10.58,3.23c.25-.08.51-.16.76-.24.5,2.03,1.27,5.24,2.18,9.27-4.39,1.62-7.89,3.13-10.68,4.42-1.37-3.47-2.91-6.57-4.63-9.1,4.09-1.55,8.21-3.01,12.37-4.36Z"/>
        <path class="cls-13" d="m200.18,91.85c-.23.07-.48.14-.7.2-4.01,1.18-6.64,1.95-8.32,2.44.17.43.34.94.51,1.39,2.42-1.2,5.26-2.39,8.65-3.62-.05-.14-.09-.28-.14-.42Z"/>
        <path class="cls-13" d="m126.79,250.37l11.06.11c.27-2.49.67-5.27,1.18-8.33l-20.15-.5c0-.16.02-.32.04-.47.05-.37.13-.76.19-1.14l.8-4.56c.54-2.5,1.02-5.02,1.58-7.51l20.21.5c.76-3.52,1.61-7.21,2.51-11l-19.75-1.72c.63-2.44,1.27-4.87,1.93-7.3l1.89-6.86,19.41,1.9c.89-3.45,1.82-6.94,2.76-10.44l-18.82-3.08c1.42-4.84,2.88-9.68,4.36-14.5l18.38,3.45c.95-3.33,1.9-6.62,2.84-9.85l-17.8-4.61c.98-3.12,1.97-6.25,2.96-9.36.57-1.76,1.15-3.53,1.72-5.29l17.34,5.2c.99-3.21,1.95-6.29,2.87-9.21l-16.82-6.43c1.59-4.86,3.2-9.72,4.82-14.58l16.49,7.32c1.15-3.36,2.17-6.19,3.02-8.4l-16.02-8.74c-.59,1.55-1.2,3.15-1.83,4.82,0,0,0,0,0,0-4.72,11.47-9.08,23.08-13.15,34.8-4.08,11.71-7.88,23.53-11.4,35.42-3.48,11.91-6.69,23.91-9.18,36.09-.66,3.04-1.16,6.11-1.69,9.17l-.63,4.63c-.05.39-.11.76-.15,1.17-.03.43-.05.86.02,1.29.11.85.39,1.67.81,2.39.85,1.43,2.05,2.54,3.33,3.47,1.27.94,2.65,1.7,4.05,2.39,2.81,1.36,5.76,2.39,8.77,3.15-2.74-.91-5.4-2.03-7.94-3.35Z"/>
        <path class="cls-13" d="m256.65,89.11c.17.24.26.57.27.92,0-.28.01-.54,0-.85-.09-.02-.18-.06-.27-.08Z"/>
        <path class="cls-13" d="m255.66,91.72c-.33-.03-.62-.24-.8-.56.07,1,.3,2.15.48,2.99.29.23.6.42.93.58.29-.87.63-2.33.66-4.36-.1.8-.65,1.4-1.27,1.35Z"/>
        <path class="cls-13" d="m250.54,121.59l1.18.1c-.15-2.78-.48-5.75-.99-8.69-.29-1.65-.4-2.89-.38-3.88-.56-.34-1.08-.67-1.52-.99-.06,5.25,1.34,9.82,1.72,13.46Z"/>
        <path class="cls-13" d="m249.1,104.78c.31.28.95.81,1.81,1.4.42-1.08,1.02-2.07,1.58-3.74.75-2.21,1.71-4.04,2.43-5.24-.36-.18-.7-.38-1.04-.63-1.66,1.44-4.02,4.12-4.77,8.21Z"/>
        <path class="cls-13" d="m249.21,133.64c.1.46.71.79,1.55,1.06.12-.98.29-2.39.63-4.3.3-1.65.43-3.67.42-5.89l-1.24-.1c-.49,4.29-1.61,8.04-1.36,9.23Z"/>
        <path class="cls-3" d="m259.48,197.95c1.56,2.33,5.82,9.61,5.82,9.61,0,0-2.93-8.36-4.71-11.19-1.78-2.83-.95-7.85-1.96-13.59-1.01-5.74-4.95-13.95-4.95-13.95,0,0,1.16,7.55,2.84,14.56,1.68,7,1.39,12.22,2.95,14.56Z"/>
        <path class="cls-3" d="m260.48,215.08c-3.9.26-6.1-1.03-10.51-1.03s-6.61,1.29-10.51,1.03c9.36.79,11.06-.3,16.66.7,5.6,1,9.9-1.61,11.2-2.06.41-.14.09-.5-.53-.92-.37.97-3.21,2.08-6.31,2.28Z"/>
      </g>
      <g>
        <path class="cls-16" d="m373.01,255.43c4.18-1.8,9.04-4.62,11.43-8.58,1.12-1.86,1.71-4,1.39-6.4-3.46-25.91-18.13-71.22-24.28-89.5-5.15-15.29-10.43-29.97-14.9-41.35-.13-.32-.23-.59-.36-.91-7.04-17.83-8.62-18.91-9.9-19.76-6.04-4.04-53.3-27.15-86.41-27.15s-80.35,23.11-86.39,27.15c-1.29.86-2.9,1.93-10.25,20.66-4.47,11.38-9.77,26.06-14.9,41.35-6.14,18.27-20.82,63.58-24.28,89.5-1,7.47,6.67,12.32,12.81,14.98-1.43,2.16-2.95,5.11-4.42,9.11-5.62,15.38-8.47,40.55-8.47,74.81,0,20.11,4.01,37.34,11.9,51.22,7.2,12.63,17.81,22.85,31.56,30.33,13.92,7.6,31.06,12.57,52.51,15.16,11.91,1.43,25.15,2.15,39.93,2.15,27.35,0,49.42-2.41,67.52-7.43,9.31-2.59,17.59-5.86,24.94-9.87,13.74-7.48,24.35-17.7,31.54-30.33,7.9-13.88,11.91-31.11,11.91-51.22,0-34.26-2.85-59.43-8.47-74.81-1.47-4-2.99-6.95-4.43-9.11Zm6.41-9.87c-1.11,1.37-2.58,2.49-4.12,3.49-.73.46-1.48.89-2.26,1.3l-8.63.09-64.59.66-5.27.05c1.35-2.39,2.66-4.93,3.86-7.47l7.93-.2,58.43-1.44,16.18-.4c.05,1.39-.55,2.75-1.51,3.92Zm-190.98,155.49c-1.93-2.32-3.75-5.01-5.45-8.07h2.49s23.71.05,23.71.05v8.02h-20.75Zm20.75,6.74v4.53c-4.89-.34-9.34-1.85-13.38-4.53h13.38Zm-62.95-76.94c0,28.52,10.6,49.06,31.48,61.11,2.36,4.7,4.97,8.74,7.82,12.09-25.77-9.81-44.77-29.7-44.77-69.32s4.76-57.33,8.58-65c1.03,1.4,2.03,2.98,2.99,4.7-3.21,9.39-6.09,26.22-6.09,56.42Zm8.82-50.6c2.45,6.12,4.32,13.84,5.11,23.57,1.94,23.91,4.6,51.26,11.61,73.29.28.88.57,1.71.87,2.57.63,1.8,1.25,3.56,1.93,5.24-16.21-11.57-24.11-29.35-24.11-54.07,0-11.33.42-20.66,1.09-28.35.87-9.87,2.15-17.04,3.51-22.25Zm27.46,105.75h-2.95c-1.05-2.44-2.04-5.06-2.99-7.84h3.38s29.22.11,29.22.11v7.78l-26.66-.05Zm-4.48-15.04h-3.68c-.69-2.49-1.34-5.02-1.95-7.61l3.93.03,32.85.15v7.53l-31.15-.1Zm-3.13-15.04h-4.09c-.47-2.45-.92-4.9-1.33-7.38l4.28.03,35.41.22v7.3l-34.28-.17Zm-2.17-15.03l-4.44-.03c-.33-2.38-.64-4.75-.93-7.13l4.51.04,37.32.26v7.06l-36.45-.2Zm-1.79-15.04l-4.51-.03c-.26-2.3-.49-4.6-.7-6.88l4.44.04,39,.31v6.83l-38.23-.27Zm-1.7-15.03l-4.25-.03c-.19-2.23-.38-4.46-.56-6.64l4.04.04,40.71.34v6.59l-39.93-.31Zm-1.88-15.03l-3.9-.03c-.34-2.25-.74-4.39-1.2-6.41l4,.04,42.91.4v6.36l-41.81-.36Zm-3.75-15.04l-3.86-.03c-.8-2.25-1.67-4.3-2.61-6.19l3.87.04,48.16.47v6.13l-45.57-.42Zm-8.56-15.09l-3.51-.03c-1.94-2.43-3.96-4.39-5.94-5.99h1.78s61.8.65,61.8.65v5.9l-54.12-.54Zm-6.46,3.09c-4.02,7.73-8.9,25.44-8.9,66s20.18,61.35,47.2,71c2.63,3.47,5.53,6.35,8.47,8.67-9.85-2.36-18.36-5.53-25.77-9.57-24.25-13.22-36.04-35.54-36.04-68.23,0-49.92,6.93-66.89,10.8-72.47,1.42,1.29,2.85,2.81,4.24,4.6Zm-11.75,1.12c-4.99,13.65-7.52,36.11-7.52,66.75,0,33.91,12.87,58.11,38.25,71.95,10.61,5.79,23.34,9.86,38.85,12.35,4.71,1.88,8.34,2.17,9.28,1.28,10.27,1.16,21.65,1.74,34.28,1.74,37,0,63.19-4.88,82.42-15.36,4.79-2.62,9.12-5.59,13.01-8.93,16.76-14.38,25.23-35.5,25.23-63.02s-2-44.51-4.61-56.24c-1.83-8.28-3.96-13.6-5.91-16.97,1.17-.77,2.43-1.38,3.79-1.85.61-.23,1.19-.42,1.74-.61,4.53,8.17,10.59,28.13,10.59,76.38,0,80.3-67.47,90.59-126.26,90.59-30.56,0-63.44-2.81-88-16.77-22.68-12.89-38.26-35.27-38.26-73.83,0-53.76,7.53-72.4,12.08-78.76.43.19.93.46,1.42.69,1.2.61,2.48,1.3,3.82,2.25-1.32,1.83-2.77,4.5-4.19,8.36Zm56.2-58.51c-.17-1.1-.49-2.26-1.3-3.21-.4.92-.72,1.7-1,2.48-.31-1.37-.7-2.78-1.24-4.21.43.19,1,.32,1.53.2.68-.13,1.21-.59,1.44-.82.27-.26.52-.52.77-.77.49-.51.96-1,1.42-1.35.28-.22.56-.36.87-.41.22,1.06.38,1.85.47,2.27-.17,8.34-1.75,12.46-3.22,13.8-.08-.79-.05-1.46.01-2.12.08-.87.2-1.76.28-2.75.08-.97.11-2.03-.04-3.13Zm-11.71-21.05c.17.91.37,1.81.61,2.71-4.24-8.49-5.38-16.21-2.92-17.98,3.04-2.21,4.8-2.67,5.73-2.67.51,0,.98.2,1.46.55h-.05c-.68,0-1.32.14-1.86.37-1.07.49-1.84,1.17-2.46,1.9-1.24,1.48-2.03,3.12-2.5,4.9,1.53-1.03,2.85-2.18,4.16-3.05.65-.45,1.32-.79,1.85-.93.56-.14.84-.09,1.23.11.83.45,1.8,1.84,2.61,3.23.32.52.64,1.09.96,1.65.59,1.97,1.19,4.15,1.76,6.4-.38.14-.75.28-1.12.42-1.32.54-2.64.96-4.02,1.78-.68.41-1.48,1.02-1.97,2.02-.01.01-.01.04-.03.05-.31-.78-.66-1.56-1.07-2.31-.72-1.25-1.6-2.5-2.86-3.41.09,1.53.27,2.89.51,4.27Zm6.87,1.43c.95-.78,2.18-1.6,3.33-2.45.22-.17.45-.36.66-.54,1.25,4.99,2.38,10.06,3.09,13.38-.46-.01-.92.08-1.3.24-.79.29-1.39.74-2.01,1.12-.56.37-1.34.91-1.29.73.01-.04.04-.04-.06-.14-.1-.1-.24-.29-.38-.52-.27-.45-.52-1.03-.75-1.63-.45-1.23-.83-2.53-1.19-3.86l-.54-2c-.18-.69-.34-1.28-.42-1.86-.15-1.23-.11-1.58.86-2.46Zm7.09-6.53c.75-.54,3.08-2.06,7.29-4.21.38-.19.75-.38,1.15-.59,2.11.52,9.45,1.17,16.15,1.17,7.75,0,17.24-1.3,17.8-2.64,1.97-4.74-8.47-14.98-23.09-11.98-8.77,1.8-11.26,6-11.79,9.19-.46.23-.86.42-1.28.64-3.47,1.74-5.9,3.15-7.33,4.06-2.63-10.82-3.95-18.43-3.95-18.43,0,0,1.76-6.45,11.6-12.45,8.54-5.22,23.2-10.11,48.12-10.11,29.01,0,44.11,6.62,51.86,12.68,6.56,5.13,7.87,9.88,7.87,9.88,0,0-1.39,7.56-4.11,18.33-1.26-.79-3.22-1.94-5.93-3.33-.78-.41-1.61-.82-2.52-1.26-.52-3.19-3.01-7.39-11.79-9.19-14.62-3-25.06,7.24-23.09,11.98.56,1.34,10.05,2.64,17.8,2.64,6.7,0,14.05-.65,16.15-1.17.75.37,1.43.73,2.08,1.07,3.35,1.75,5.34,3.03,6.17,3.59-5.56,20.98-15.43,50.75-29.13,63.1-4.71,4.25-5.57,14.16-22.18,15.29-.38.03-.82.04-1.23.05-.65.03-1.26.06-1.97.06-18.86,0-20.75-11.46-25.59-15.62-14-12.03-23.7-41.73-29.09-62.74Zm21.4-7.84c.32.29.55.47.55.47h-.32c-.4,0-1.15,0-2.07-.04-2.75-.1-6.9-.49-7.13-1.9-.27-1.57,3.33-3.95,5.22-5.08.66-.4,1.11-.64,1.11-.64-.74,3.55,1.56,6.18,2.63,7.19Zm9.71.47s2.21-1.76,2.64-6.69c0,0,4.41,2.9,4.32,4.75-.08,1.85-6.96,1.94-6.96,1.94Zm5.35-69.1c.01-.36.04-.7.06-1.03h.01c.27.06.59-.19.88-.64.23-.36.45-.84.59-1.42.24-.98.19-1.86-.08-2.26-.08-.11-.17-.22-.27-.24-.19-.04-.4.05-.6.26.26-1.1.61-1.78,1.14-1.78.06,0,.11.04.18.05.06.01.12.01.18.04,0,0,.93-1.12,4.2-1.34.32-.01.61-.03.89-.03,2.57,0,3.45.8,3.45.8.14-.09.28-.14.41-.14.49,0,.91.61,1.29,1.63-.23-.19-.46-.27-.64-.19-.49.19-.5,1.33-.03,2.53.47,1.2,1.25,2.03,1.74,1.84h.01c.08.32.14.66.2,1.02.5,2.55-.09,4.78-.64,6.16-3.65-1.84-7.52-.91-10,.1-.59.24-1.12.49-1.53.69-.73-1.29-1.61-3.42-1.46-6.05Zm-.01-24.8c.14-.03.28-.05.42-.08,3.05-.55,6.32-1.06,9.8-1.4.38,4.64.78,9.97,1.15,15.77-.09,0-.17-.03-.27-.03-.87-.36-2.13-.66-3.9-.66-.34,0-.72.01-1.09.03-2.26.15-3.77.69-4.75,1.23-.47-5.2-.95-10.28-1.37-14.85Zm15.86,52.22c-.88.01-1.75.03-2.63.04.56-.73,1.03-1.61,1.42-2.59.01.2.04.41.08.6.17.8.57,1.44,1.14,1.95Zm-.72-16.79c.17-.01.32-.01.49-.01.18.98.31,1.88.38,2.71-.2.03-.42.05-.63.08-.11-1.06-.19-1.98-.24-2.77Zm-4.25,15.29l-1.24-18.77c.88.13,1.75.42,2.58.93.01,1.39.12,3.93.59,7.66.54,4.32-.33,8.21-1.93,10.18Zm-6.73-17.96c.28-.11.55-.23.87-.33l1.21,18.59c-.43-.41-.84-.95-1.21-1.57-1.2-1.99-2.01-4.95-2.03-8.28-.03-3.79-.26-6.33-.43-7.71.38-.2.96-.46,1.6-.7Zm21.02-26.68c-.01-.36-.09-.68-.27-.93.09.03.18.06.27.08,1.24.32,2.55.98,2.55.98,0,0,1.72-.56,3.08-.57-.27.26-.46.65-.5,1.12-.06.84.4,1.57,1.03,1.62.27.03.51-.08.73-.27-.24.92-.61,1.93-.92,2.67-1.23.38-4.29,1.11-6.63-.01-.33-.15-.64-.34-.93-.57-.18-.84-.41-1.99-.49-3,.19.32.47.54.8.56.63.05,1.17-.55,1.26-1.35.01-.03.03-.05.03-.08.01-.09-.01-.17-.03-.24Zm15.38,26.5c-.68-.92-2.12-1.01-3.86-.93.38-1.21.73-2.52,1.02-3.87,2.4.31,4.06,1.39,4.83,3.22.05.1.06.22.1.32-.86-1.6-2.5-2.54-4.1-2.76,1.47.74,2.64,1.89,3.09,3.29.45,1.38.31,2.91-.29,4.19-.28.65-.69,1.23-1.17,1.67-.46.45-1.03.75-1.69.96-1.3.37-2.8.29-4.24.01.24-.79.55-1.63.87-2.53,1.48.29,2.84.28,3.84-.1.86-.32,1.47-.88,1.75-1.62.37-.93.06-1.56-.15-1.85Zm-9.94,18.21c-.28.7-1.76.89-3.46.89h-.26l.87-10.48,3.04.26c-.23,4.3.26,8.2-.19,9.34Zm-2.61-12.39l.87-10.48c2.01-.13,4.12-.68,6.3-1.88-.84,5.03-2.91,9.19-3.87,12.63l-3.29-.27Zm1.11-13.32l.93-11.14c.89-.17,1.62-.37,2.09-.52,1.42,1.7,3.36,4.8,3.37,9.07-2.2,1.61-4.37,2.38-6.4,2.59Zm6.17-12.17c-.45-.65-.88-1.2-1.28-1.65,1.62-4.16,1.44-6.6-.54-7.8-.72-.43-1.57-.65-2.61-.65s-2.09.22-2.89.41c-.57-.24-1.29-.51-2.04-.7.1-1.38.22-2.72.32-4,3.47.34,6.74.86,9.8,1.4.14.03.28.05.42.08-.37,4-.78,8.39-1.19,12.91Zm-12.12.33c.31.15.64.29.96.41l-.89,10.69c-1.66-.6-3.03-1.4-4.07-2.12-.86-.59-1.49-1.12-1.8-1.4.75-4.09,3.1-6.77,4.76-8.2.34.24.69.45,1.05.63Zm-4.57,11.9c1.23.74,2.69,1.48,4.41,2.02l-.91,10.74-2.12-.18-1.17-.1c-.38-3.64-1.79-8.21-1.72-13.46.43.32.96.65,1.52.98Zm3.27,15.55l-.88,10.48c-.73-.11-1.39-.27-1.97-.45-.84-.26-1.46-.6-1.56-1.06-.24-1.19.88-4.94,1.37-9.23l1.24.11,1.8.14Zm66.47,54.01c-.47-1.23-1.06-2.4-1.95-3.46-.56-.64-1.24-1.26-2.15-1.72.08-.34.15-.65.23-.95,1.03.26,2.54.93,4.73,2.52,2.45,1.78,1.32,9.49-2.92,17.98.24-.89.45-1.8.61-2.71.24-1.38.42-2.73.51-4.27-.42.29-.74.68-1.07,1.03-.69.73-1.3,1.53-1.79,2.38-.41.75-.77,1.53-1.07,2.31-.01-.01-.01-.04-.03-.05-.49-1-1.29-1.61-1.97-2.02-.52-.31-1.03-.55-1.55-.78,1.53-4.95,2.73-9.31,3.58-12.57.4.17.8.41,1.21.69,1.33.87,2.64,2.02,4.18,3.05-.14-.51-.36-.97-.55-1.44Zm-8.33,13.09c.97.88,1.01,1.24.86,2.46-.08.59-.24,1.17-.42,1.86l-.54,2c-.36,1.33-.74,2.63-1.19,3.86-.23.6-.49,1.19-.75,1.63-.14.23-.28.42-.38.52-.1.1-.08.1-.06.14.05.18-.73-.36-1.29-.73-.33-.2-.66-.42-1.01-.64,1.49-4.06,2.84-8.03,4.01-11.74.28.2.54.41.78.61Zm-4.88,22.74c.06.98.2,1.88.28,2.75.05.66.09,1.33,0,2.13-.29-.28-.6-.68-.89-1.21-.87-1.53-1.67-4.16-2.07-8.2.74-1.79,1.44-3.56,2.11-5.34.14.14.27.27.41.42.24.24.5.51.77.77.2.2.69.59,1.28.75.06.01.1.05.17.06.54.11,1.09-.01,1.53-.2-.54,1.43-.93,2.85-1.24,4.21-.28-.78-.6-1.56-1-2.48-.82.95-1.14,2.11-1.3,3.21-.15,1.1-.12,2.15-.04,3.13Zm-20.99-44.3s6.7,3.61,6.35,5.72c-.34,2.12-9.51,1.94-9.51,1.94,0,0,4.14-3.08,3.17-7.66Zm-12.34,7.66s-.92-.01-2.09-.11c-2.03-.19-4.8-.65-4.87-1.83-.05-1.25,1.92-2.96,3.22-3.96.63-.47,1.1-.79,1.1-.79.45,4.93,2.64,6.69,2.64,6.69Zm-48.82,102.45c2.85,1.15,5.76,2.11,8.76,2.84l.55,8.54c-3.22-.78-6.36-1.84-9.4-3.12-1.98-.83-3.92-1.74-5.8-2.77l.13-8.11c1.86.98,3.79,1.84,5.76,2.62Zm-5.72-4.98l.34-20.29c1.63,2.22,3.52,4.32,5.57,6.26,2.3,2.18,4.83,4.19,7.55,5.93l.88,13.73c-2.95-.75-5.81-1.74-8.61-2.9-1.95-.82-3.87-1.71-5.73-2.72Zm5.61,15.5c3.1,1.25,6.3,2.3,9.57,3.06l4.18,65.21c-3.97,3.7-7.3,16.13,11.62,16.13,1.6,0,2.96-.11,4.25-.28.06,0,.11-.01.18-.03,1.74-.23,3.23-.59,4.47-1.06,8.63-3.32,5.9-11.81,2.73-14.76l4.18-65.21c1.4-.33,2.77-.74,4.15-1.16,5.89-1.79,11.53-4.35,16.63-7.78v95.75c-10.08,2.23-22.11,3.31-36.59,3.31-9.85,0-18.56-.51-26.29-1.52-2.22-.29-4.37-.63-6.44-1.01l.03-1.6,1.53-91.72c1.88,1,3.83,1.86,5.81,2.66Zm31.68-11.42c2.15.98,4.29,1.99,6.37,3.13-1.14-.36-2.23-.77-3.36-1.15l-3.33-1.23c-2.21-.83-4.39-1.71-6.59-2.59-2.18-.89-4.37-1.79-6.54-2.73-2.17-.93-4.33-1.86-6.49-2.87,2.3.6,4.55,1.34,6.78,2.12,2,.69,3.96,1.46,5.91,2.22,2.09-.91,4.21-1.78,6.35-2.57,1.1-.4,2.21-.79,3.31-1.16,1.11-.37,2.23-.7,3.36-1.01-2.2.77-4.34,1.7-6.46,2.66-1.06.5-2.11,1-3.15,1.51-.7.36-1.4.73-2.12,1.1,2.01.82,4,1.66,5.96,2.58Zm-1.81,77.38c-1.72-.63-3.42-1.29-5.11-1.98-1.7-.69-3.37-1.39-5.04-2.13-1.67-.73-3.35-1.49-4.99-2.31,1.8.42,3.55.95,5.29,1.55,1.53.52,3.04,1.1,4.53,1.69,1.62-.68,3.24-1.33,4.89-1.92.86-.31,1.71-.6,2.58-.87.86-.27,1.74-.52,2.61-.75-1.7.63-3.36,1.34-4.98,2.11-.82.38-1.62.79-2.43,1.2-.47.24-.93.5-1.4.74,1.47.61,2.94,1.24,4.38,1.92,1.66.78,3.29,1.61,4.89,2.52-1.76-.52-3.5-1.11-5.21-1.75Zm4.34,9.59c-.03,1.9-.11,3.81-.54,5.7-.41-1.89-.51-3.79-.52-5.7.01-1.89.1-3.79.52-5.7.42,1.9.51,3.81.54,5.7Zm-4.19,0c-.01,2-.12,4-.52,6-.42-2-.51-4-.54-6,.01-1.99.12-4,.54-5.99.41,1.99.51,4,.52,5.99Zm-4.13,0c-.03,2.22-.11,4.43-.54,6.64-.41-2.21-.5-4.42-.52-6.64.01-2.21.11-4.42.52-6.64.42,2.22.52,4.43.54,6.64Zm-3.61,0c-.01,2-.12,4-.52,6-.42-2-.51-4-.54-6,.01-1.99.12-4,.54-5.99.41,1.99.51,4,.52,5.99Zm-4.19,0c-.01,1.9-.1,3.81-.52,5.7-.42-1.89-.51-3.79-.54-5.7.03-1.89.12-3.79.54-5.7.42,1.9.51,3.81.52,5.7Zm14.81-23.93c-.7-.24-2.06-.73-2.75-.98-1.81-.66-3.6-1.38-5.4-2.09-1.79-.74-3.58-1.48-5.34-2.26-1.78-.77-3.54-1.57-5.29-2.43,1.89.46,3.74,1.03,5.58,1.66,1.62.55,3.22,1.16,4.81,1.8,1.67-.72,3.37-1.39,5.1-2.02.04-.01.06-.03.1-.04.88-.32,1.76-.63,2.66-.91.03-.01.04-.01.06-.03.91-.28,1.81-.55,2.73-.79-1.79.65-3.55,1.4-5.27,2.22-.86.4-1.71.82-2.57,1.25-.52.27-1.03.54-1.55.82,1.57.65,3.14,1.33,4.69,2.04,1.76.82,3.5,1.69,5.2,2.64-.93-.28-1.86-.59-2.77-.89Zm-18.71,23.93c-.03,1.56-.11,3.1-.52,4.65-.42-1.55-.51-3.09-.54-4.65.01-1.55.11-3.09.54-4.65.41,1.56.51,3.1.52,4.65Zm19.16-39.19c-.52-.18-2.38-.86-2.89-1.05-1.92-.7-3.81-1.47-5.71-2.22-1.89-.78-3.77-1.56-5.63-2.38-1.88-.82-3.74-1.65-5.59-2.54,1.99.5,3.95,1.11,5.89,1.78,1.71.59,3.4,1.24,5.08,1.9,1.79-.75,3.59-1.48,5.41-2.15.04-.03.08-.04.12-.05.92-.33,1.85-.65,2.78-.96.01,0,.04-.01.05-.01.96-.31,1.92-.59,2.89-.86-1.9.69-3.75,1.49-5.58,2.34-.91.42-1.81.87-2.71,1.32-.57.29-1.14.59-1.7.89,1.69.69,3.36,1.4,5.02,2.18,1.85.86,3.69,1.76,5.48,2.76-.98-.29-1.94-.64-2.91-.96Zm.45-15.26c-.36-.13-2.69-.98-3.04-1.11-2-.74-4-1.55-6-2.35-1.98-.8-3.96-1.62-5.94-2.49-1.97-.86-3.93-1.72-5.87-2.64,2.09.52,4.14,1.17,6.18,1.89,1.8.61,3.58,1.3,5.35,2,1.89-.82,3.79-1.58,5.72-2.3.05-.01.09-.03.13-.04.97-.36,1.94-.69,2.91-1.01.03-.01.05-.01.06-.03,1-.32,2-.63,3.01-.89-1.99.72-3.95,1.56-5.86,2.44-.97.46-1.92.92-2.86,1.39-.63.31-1.23.63-1.84.95,1.79.74,3.58,1.49,5.33,2.32,1.95.89,3.9,1.84,5.79,2.89-1.03-.32-2.04-.69-3.06-1.02Zm.45-15.27c-.18-.05-3.01-1.1-3.18-1.16-2.12-.78-4.2-1.63-6.3-2.46-2.09-.86-4.18-1.71-6.24-2.62-2.07-.89-4.14-1.79-6.18-2.76,2.2.56,4.34,1.26,6.49,2,1.9.65,3.77,1.38,5.63,2.12.01-.01.03-.01.04-.03,1.98-.86,3.97-1.66,5.99-2.41.05-.01.09-.03.13-.04,1.01-.37,2.03-.73,3.05-1.06.03-.01.04-.03.06-.03,1.05-.34,2.09-.66,3.15-.95-2.11.74-4.15,1.62-6.17,2.55-1.01.47-2.02.95-3.01,1.44-.65.33-1.32.68-1.97,1.02,1.89.78,3.78,1.58,5.64,2.45,2.04.95,4.09,1.92,6.07,3-1.07-.33-2.13-.72-3.21-1.09Zm2.8,69.73c.01-1.55.11-3.09.54-4.65.41,1.56.51,3.1.52,4.65-.01,1.56-.11,3.1-.52,4.65-.42-1.55-.51-3.09-.54-4.65Zm9.49-84.58c5.45-1.78,10.66-4.23,15.41-7.42v7.99c-4.99,3.54-10.55,6.21-16.37,8.07-1.42.45-2.82.89-4.27,1.24l.55-8.54c1.58-.38,3.13-.84,4.67-1.34Zm-4.53-.86l.46-7.04c1.72-.4,3.45-.91,5.15-1.56,4.98-1.86,9.83-4.8,14.34-8.99v8.44c-4.64,3.29-9.77,5.85-15.16,7.69-1.57.55-3.17,1.03-4.79,1.46Zm-42.97,105.82c7.8,1.01,16.51,1.52,26.33,1.52,14.34,0,26.38-1.05,36.59-3.21v14.21c-10.54,1.69-22.63,2.52-36.59,2.52-9.71,0-18.48-.42-26.47-1.23-2.27-.23-4.51-.49-6.65-.78.12-5.06.23-10.08.31-14,2.08.37,4.25.68,6.49.96Zm-.19,18.06c8.06.8,16.84,1.21,26.52,1.21,13.87,0,25.98-.8,36.59-2.45v7.32c-12.03,1.7-24.52,2.2-36.59,2.2-8.75,0-17.73-.28-26.6-1.07-2.29-.22-4.58-.42-6.86-.7.08-2.26.14-4.73.22-7.27,2.17.29,4.43.54,6.72.77Zm-.08,8.28c8.86.78,17.84,1.07,26.6,1.07,12.07,0,24.55-.5,36.59-2.17v2.54c0,1.16.95,2.11,2.11,2.11,3.22,0,6.28-.43,9.19-1.29,8.2-2.15,16.95-7.1,21.67-12.17,23.71-10.51,40.74-30.61,40.74-68.42s-3.86-54.1-7.55-63.06c1.28-2.23,2.62-4.07,4.09-5.57,3.95,7.22,9.6,25.43,9.6,70.51,0,32.69-11.79,55-36.04,68.23-18.59,10.13-44.13,14.85-80.4,14.85-9.62,0-18.48-.34-26.66-1.02-2.41-.2-4.78-.42-7.07-.68.09-1.56.17-3.47.24-5.63,2.29.28,4.58.5,6.9.7Zm126.13-82.22c0,16.73-3.64,30.27-11,40.87-2.16,3.1-4.62,5.98-7.42,8.58,2.63-6.63,4.87-13.31,5.66-17.96,1.71-10.11,5.57-38.34,6.54-50.05.72-8.63,1.34-16.75,3.23-24.58.5,2.76.95,5.87,1.35,9.37.98,8.62,1.63,19.64,1.63,33.77Zm-.4-51.45c.97-2.46,1.94-4.64,2.96-6.55,3.47,8.96,7.14,26.73,7.14,61.89s-15.77,55.82-38.07,66.46c.27-.38.52-.75.73-1.12,1.6-2.76,3.67-6.9,5.75-11.54,17.33-12.35,26.12-31.71,26.12-57.67s-2.06-41.45-4.62-51.45Zm-8.9,1.32l-3.54.03-43.88.4-2,.03v-6.13h1.43s47.11-.47,47.11-.47l3.49-.04c-.93,1.89-1.8,3.95-2.61,6.19Zm-46.7,9.04l40.65-.37,3.54-.04c-.46,2.02-.86,4.16-1.21,6.41l-3.46.03-39.04.33-3.19.03v-6.36l2.72-.03Zm1,14.74l37.7-.32,3.33-.03c-.18,2.12-.36,4.34-.55,6.64l-3.27.03-36.89.28-4.04.03v-6.59l3.72-.04Zm.61,14.75l36.06-.28,3.08-.03c-.2,2.25-.43,4.55-.69,6.88l-2.86.03-35.45.23-4.47.04v-6.83l4.33-.04Zm.17,14.75l34.8-.24h2.58c-.28,2.34-.6,4.73-.95,7.1l-2.29.03-34.17.19-4.47.03v-7.06l4.5-.04Zm-.06,14.76l33.36-.2h1.95c-.41,2.45-.86,4.9-1.34,7.36h-1.67l-32.35.15-4.38.03v-7.3l4.43-.03Zm-.09,14.75l31.02-.14h1.43c-.6,2.57-1.25,5.11-1.95,7.59h-1.37l-29.17.1h-4.3s0-7.52,0-7.52l4.34-.03Zm-.04,14.76l26.69-.09h1.58c-.95,2.71-1.95,5.33-3.04,7.83h-2.62l-22.59.04h-4.33s0-7.76,0-7.76h4.3Zm.1,14.76l18.25-.04h3.42c-1.67,2.95-3.5,5.67-5.5,8.06h-20.57v-8.02h4.41Zm8.79,14.76c-.65.42-1.33.79-2,1.16-1.81,1.01-3.73,1.79-5.75,2.36-1.74.49-3.54.87-5.44,1v-4.52h13.19Zm44.44-142.17l-3.56.03-53.53.52h-.54s0-5.89,0-5.89l59.69-.61,3.88-.04c-1.98,1.6-4,3.56-5.94,5.99Zm27.65-46.38c.74,2.9,1.44,5.81,2.12,8.72l-14.26.34-51.81,1.29-7.91.19c1.19-3.18,2.04-5.7,2.49-7.02.5.18,1.02.28,1.56.28.06,0,.13,0,.2-.01.91-.03,1.48-.63,1.9-1.62l3.9-.34,48.31-4.21,12.57-1.1c.31,1.16.63,2.32.93,3.49Zm-5.94-21.47c.38,1.28.73,2.55,1.1,3.83l-10.91,1.07-41.12,4.04-5.68.55c.63-1.65,1.44-3.28,2.54-4.84.93-1.32,1.89-2.8,2.81-4.39l5.81-.95,33.59-5.49,9.58-1.57c.77,2.58,1.55,5.16,2.29,7.75Zm-6.73-22.23l-8.03,1.52-26.43,4.95-3.91.74c.69-3.59.55-6.77-.89-8.89l1.85-.49,27.12-7.02,6.85-1.78c1.16,3.65,2.32,7.3,3.45,10.96Zm-11.63-35.94c1.15,3.46,2.3,6.91,3.44,10.37l-5.4,1.62-27.04,8.11-4.88,1.46c.36-2.84.77-6.03,1.16-9.05l4.85-1.85,23.41-8.95,4.46-1.7Zm-8.35-24.25c1.15,3.24,2.3,6.5,3.42,9.77l-3.45,1.53-18.24,8.1-4.02,1.79c.27-2.87.5-6.36.66-9.39l2.96-1.62,15.58-8.51,3.08-1.67Zm-177.5-22.9c.49-.32,1.4-.84,2.68-1.53,11.98-6.86,24.75-12.26,37.75-16.92,6.99-2.52,14.15-4.6,21.42-6.19,7.28-1.58,14.69-2.76,22.21-2.84,7.53.09,14.94,1.25,22.21,2.84,7.28,1.6,14.43,3.69,21.43,6.19,12.99,4.66,25.76,10.06,37.72,16.91,1.29.69,2.22,1.23,2.71,1.55.66.66,1.03,1.53,1.46,2.35.4.84.77,1.69,1.14,2.54.57,1.35,1.12,2.71,1.66,4.06l-3.91,2.49-4.73,3-3.95,2.52.79-1.56c.26-.5.49-1.02.78-1.51l.89-1.46c.59-.97,1.12-1.98,1.69-2.99.08-.14.17-.28.26-.42,1.11-1.83,2.26-3.64,3.21-5.67-.96.7-1.84,1.48-2.72,2.27-.87.82-1.76,1.61-2.54,2.52-.01.01-.03.03-.03.04-.73.92-1.47,1.83-2.17,2.77l-1.05,1.44c-.34.49-.6,1.03-.91,1.55l-1.76,3.12c-.59,1.05-1,2.17-1.51,3.26-1.07,2.16-1.72,4.47-2.46,6.74-.38,1.12-.59,2.3-.89,3.45-.27,1.16-.63,2.3-.79,3.47-.4,2.32-.83,4.65-1.12,6.97-.34,2.32-.61,4.64-.88,6.95l-.8,6.93c-.42,3.58-.86,7.14-1.38,10.7-.75-1.34-1.88-2.99-3.51-4.78-.95-.95-1.95-1.84-2.99-2.67-.54-.46-1.11-.87-1.69-1.26l-1.7-1.23c-1.21-.7-2.38-1.48-3.61-2.13-.36-.18-.73-.37-1.09-.56-.87-.46-1.74-.92-2.64-1.32l-3.86-1.62-3.96-1.35-.98-.34-1.01-.27-2.03-.54c-6.16-1.63-12.48-2.63-18.85-3.19.23-.28.43-.6.59-.98.31-.77.38-1.7.4-2.95.63.06,1.24.13,1.86.19,1.43.22,2.86.47,4.29.72.88.17,1.76.29,2.64.45.15-3.21.43-6.9.83-10.87,1.65-2.18,2.49-6.04,1.17-9.14-.03-.08-.06-.15-.1-.23,1.17-9.31,2.75-19.16,4.33-27.34.5.11,1.01.23,1.48.36,2.67.66,5.08,1.3,7.3,1.9-2.77,12.6-6.35,30.73-8.07,47,1.03.28,2.06.57,3.06.95,2.31.69,4.55,1.61,6.78,2.55.7-10.56,3.29-31.88,8.81-47.49.23.06.47.14.69.2,4.01,1.17,6.64,1.94,8.33,2.44-3.98,10.23-8.72,26.29-10.94,48.43.69.42,1.35.84,2.04,1.26,1.2.8,2.34,1.72,3.5,2.58l1.62,1.44c.1.09.2.18.31.27,1.43-10.47,5.62-35.02,14.66-50.34,2.15-3.64,4.56-6.76,7.28-9.04-4.38-2.08-8.85-4-13.33-5.84-1.14,2.06-2.84,5.47-4.74,10.25.15.1.31.2.43.29.73.49,1.19.86,1.47,1.12.27.24.37.34.37.34-2.32-1.32-4.81-2.3-7.27-3.32-2.48-1.01-4.98-1.94-7.48-2.85-5.02-1.79-10.11-3.4-15.25-4.83-5.13-1.42-10.33-2.68-15.59-3.58-5.25-.91-10.56-1.55-15.9-1.58-5.34.04-10.64.68-15.9,1.58-5.25.89-10.45,2.16-15.58,3.58-5.13,1.43-10.23,3.04-15.25,4.83-2.52.91-5.01,1.84-7.48,2.85-2.45,1.02-4.94,2-7.27,3.32,0,0,.1-.1.37-.34.28-.27.74-.64,1.47-1.12.13-.09.28-.19.43-.29-1.9-4.78-3.6-8.19-4.74-10.25-4.48,1.84-8.95,3.75-13.33,5.84,3.77,3.17,6.95,7.94,9.63,13.47,7.42,15.29,11.01,36.4,12.31,45.9.1-.08.19-.18.29-.26l1.63-1.44c1.16-.86,2.29-1.79,3.5-2.58.68-.42,1.35-.86,2.03-1.28-2.12-21.19-6.55-36.75-10.42-47.02-.17-.46-.34-.96-.51-1.39,1.69-.5,4.3-1.26,8.31-2.44.23-.06.47-.14.7-.2.05.14.09.28.14.42,5.41,15.57,7.97,36.59,8.67,47.06,2.22-.95,4.47-1.85,6.78-2.54,1.01-.37,2.03-.68,3.06-.96-1.72-16.27-5.3-34.38-8.07-46.98,2.22-.6,4.64-1.24,7.3-1.9.47-.13.98-.24,1.48-.36,2.86,14.78,5.66,34.98,6.23,47.58.88-.17,1.76-.29,2.64-.46,1.43-.23,2.86-.5,4.28-.72.23-.03.46-.04.69-.06.64,1.53,1.46,2.82,2.41,3.81-6.46.55-12.86,1.56-19.09,3.22l-2.03.54-1.01.27-.98.34-3.96,1.35-3.86,1.62c-1.28.55-2.48,1.25-3.73,1.88-1.24.64-2.4,1.42-3.61,2.12l-1.7,1.23c-.57.4-1.15.8-1.67,1.26-1.07.84-2.09,1.75-3.05,2.72-1.6,1.76-2.71,3.38-3.46,4.71-.52-3.55-1-7.11-1.38-10.69-.55-4.61-.97-9.25-1.6-13.89-.27-2.32-.69-4.66-1.06-7-.17-1.16-.49-2.32-.74-3.49-.28-1.15-.47-2.32-.86-3.47-.74-2.27-1.37-4.6-2.41-6.78-.5-1.1-.91-2.23-1.48-3.29l-.17-.28-1.61-2.86c-.31-.51-.57-1.06-.91-1.55l-1.03-1.48c-.69-.97-1.42-1.93-2.18-2.85-.78-.89-1.7-1.67-2.63-2.45-.92-.77-1.9-1.48-2.98-2.08.8,2.39,1.98,4.37,3.13,6.35.54,1.01,1.11,1.99,1.71,2.95l.91,1.43c.29.47.52,1,.78,1.49l.51,1.01-12.32-7.84c2.2-5.08,3.82-8.24,4.58-8.75Zm-39.96,158.1c-1.39-.69-2.77-1.44-4.05-2.39-1.28-.93-2.48-2.04-3.32-3.47-.42-.72-.7-1.53-.82-2.39-.06-.42-.05-.86-.01-1.29.04-.4.1-.77.15-1.16l.63-4.62c.54-3.06,1.03-6.13,1.7-9.17,2.49-12.18,5.71-24.19,9.18-36.09,3.52-11.9,7.32-23.71,11.4-35.43,4.06-11.72,8.42-23.33,13.14-34.8.63-1.66,1.24-3.27,1.83-4.81l16.01,8.75,8.16,4.46c.65,3.18,1.17,6.4,1.67,9.65l-12.85-5.71-16.49-7.33c-1.62,4.87-3.23,9.72-4.83,14.58l16.83,6.42,19.74,7.55c.51,2.99,1.06,5.98,1.67,8.95l-24.29-7.28-17.34-5.21c-.56,1.78-1.15,3.52-1.71,5.3-1,3.12-1.98,6.23-2.96,9.36l17.8,4.61,18.61,4.83c-1.44,2.12-1.58,5.3-.89,8.89l-20.56-3.87-18.38-3.45c-1.48,4.83-2.95,9.65-4.37,14.51l18.82,3.08,30.64,5.01c.92,1.6,1.86,3.08,2.81,4.39,1.1,1.56,1.92,3.19,2.54,4.84l-38.75-3.79-19.41-1.9-1.89,6.86c-.66,2.43-1.3,4.87-1.93,7.3l19.76,1.72,45.37,3.96c.41,1,1,1.6,1.9,1.62.08.01.14.01.2.01.19,0,.38-.03.57-.05,4.79,2.73,9.96,3.77,12.91,4.14.46,1,.93,1.97,1.4,2.92l-64.89-1.61-20.22-.5c-.56,2.5-1.05,5.01-1.58,7.52l-.79,4.55c-.06.38-.14.78-.19,1.14-.01.17-.04.32-.04.47l20.15.5,70.14,1.74v7.33l-71.31-.73-11.07-.11c2.54,1.33,5.21,2.44,7.94,3.36-3.01-.77-5.95-1.8-8.77-3.15Zm198.3,173.67c-22.05,7.65-48.21,9.76-74.29,9.76-20.64,0-41.33-1.32-60-5.66-40.64-9.42-71.68-33.19-71.68-88.97s7.87-75.7,12.71-82.31c.87.18,2.16.5,3.72,1.09-4.81,6.87-12.06,26.03-12.06,79.19,0,42.28,18.45,65.36,44.49,77.79,23.98,11.44,54.4,13.87,82.82,13.87,59.28,0,127.32-10.42,127.32-91.65,0-47.89-5.87-68.18-10.56-76.76.45-.15.82-.27,1.2-.41.96-.32,1.83-.6,2.49-.82,4.81,8.39,11.24,29.13,11.24,80.02s-24,73.3-57.4,84.87Z"/>
        <path class="cls-16" d="m250,76.19c3,.03,5.83.22,8.52.52.35-3.89.65-6.99.86-9.05-3.12-.35-6.25-.56-9.38-.57-3.13.01-6.26.23-9.38.57.21,2.06.51,5.16.86,9.05,2.69-.3,5.52-.49,8.52-.52Z"/>
        <path class="cls-16" d="m231.12,78.4s.09-.02.13-.03c-.35-3.79-.64-6.94-.85-9.13-.73.14-1.47.29-2.2.44-1.79.41-3.6.74-5.38,1.23l-5.35,1.4c-.37.11-.74.22-1.11.33.69,2.33,1.45,5.4,2.21,8.99,3.69-1.13,7.85-2.22,12.54-3.24Z"/>
        <path class="cls-16" d="m209.83,84.58c-.92-4.04-1.69-7.24-2.18-9.27-.25.08-.51.16-.76.24-4.16,1.35-8.28,2.81-12.37,4.36,1.71,2.53,3.25,5.62,4.63,9.1,2.79-1.29,6.29-2.81,10.68-4.42Z"/>
        <path class="cls-16" d="m281.43,81.64c.76-3.58,1.52-6.66,2.21-8.99-.37-.11-.74-.22-1.11-.33l-5.34-1.4c-1.78-.49-3.59-.81-5.38-1.23-.73-.15-1.47-.3-2.2-.44-.2,2.18-.49,5.34-.84,9.13.04,0,.09.02.13.03,4.69,1.01,8.85,2.11,12.54,3.24Z"/>
        <path class="cls-16" d="m305.48,79.9c-4.09-1.55-8.21-3.01-12.37-4.36-.25-.08-.51-.16-.76-.24-.5,2.03-1.27,5.24-2.19,9.28,4.39,1.62,7.89,3.13,10.68,4.42,1.37-3.48,2.91-6.57,4.63-9.1Z"/>
        <path class="cls-16" d="m216.31,152.97c-2.42.13-4.85.56-7.18,1.37-2.32.81-4.51,2-6.44,3.49-1.93,1.49-3.58,3.28-5,5.19-1.4,1.93-2.51,4-3.45,6.12-.29.66-.05,1.45.58,1.82.68.4,1.57.17,1.97-.51l.03-.05c.88-1.49,1.83-2.9,2.85-4.25.25-.33.48-.68.75-1,1.37-1.58,2.91-2.97,4.6-4.11,3.36-2.29,7.36-3.4,11.44-3.44,4.09-.06,8.25.87,12.21,2.31,1.99.72,3.93,1.59,5.82,2.57.95.48,1.84,1.05,2.8,1.51.97.45,1.96.83,3.17.98h.09c.35.05.71,0,1.05-.19.86-.46,1.18-1.53.72-2.39-.62-1.15-1.48-1.99-2.43-2.69-.96-.69-2.02-1.21-3.06-1.75-1.57-.8-3.2-1.49-4.85-2.13-.54-.21-1.08-.44-1.63-.63-4.44-1.54-9.19-2.46-14.05-2.23Z"/>
        <path class="cls-16" d="m303.21,170.46c.37.62,1.15.89,1.83.58.72-.32,1.05-1.17.73-1.9-.82-1.84-1.8-3.63-2.95-5.34-.18-.26-.32-.53-.5-.79-.81-1.09-1.72-2.12-2.69-3.1-.73-.73-1.48-1.45-2.31-2.09-1.93-1.49-4.12-2.68-6.44-3.49-2.32-.81-4.76-1.24-7.18-1.37-4.86-.23-9.61.69-14.05,2.23-2.22.77-4.38,1.7-6.47,2.76-1.04.54-2.1,1.06-3.05,1.75-.95.7-1.82,1.55-2.43,2.69-.17.31-.24.67-.2,1.05.12.97.99,1.66,1.96,1.54h.09c1.21-.16,2.2-.54,3.17-.99.96-.46,1.85-1.03,2.8-1.51,1.88-.98,3.83-1.85,5.82-2.57,3.97-1.44,8.12-2.37,12.22-2.31,4.08.03,8.08,1.14,11.44,3.44,1.68,1.14,3.23,2.53,4.6,4.11.9,1.07,1.71,2.25,2.48,3.45.38.59.77,1.18,1.13,1.79l.03.05Z"/>
        <path class="cls-16" d="m233.39,213.1c.8.88,3.35,1.78,6.11,1.96,3.9.26,6.1-1.03,10.51-1.03s6.61,1.29,10.51,1.03c3.1-.21,5.94-1.31,6.31-2.28.1-.25.07-.5-.21-.71-1.36-1.05-3.75-2.74-7.14-2.31-3.39.43-6.76-.72-9.47-.72s-6.08,1.15-9.47.72c-.9-.11-1.73-.07-2.49.06-2.09.37-3.65,1.47-4.64,2.24-.02.02-.02.03-.04.05-.33.29-.29.62,0,.96,0,0,.02.02.02.02Z"/>
        <path class="cls-16" d="m265.33,207.54s-4.26-7.28-5.82-9.61c-1.56-2.33-1.28-7.55-2.95-14.56-1.68-7-2.84-14.56-2.84-14.56,0,0-.26,17.3.77,23.62,1.03,6.32,3.87,10.57,10.84,15.11Z"/>
        <path class="cls-16" d="m238.24,238.2c-1.53-.39-3.05-.83-4.6-1.29,0,0,3.28,6.34,16.96,6.61,13.82.27,18.16-7.21,18.16-7.21-2.19.68-4.23,1.25-6.14,1.71-10.99,2.65-17.85,1.85-24.38.18Z"/>
        <path class="cls-16" d="m240.16,231.26c.81-.12,1.53-.17,2.24-.11l.54.06.62.09,1.25.19,2.55.38c.9.11,1.82.17,2.77.15,1.89-.08,3.56-.37,5.26-.65l2.49-.43c.19-.03.43-.07.57-.08.1,0,.22-.02.41,0,.33,0,.73.06,1.13.12l5.01.93c1.71.24,3.5.52,5.24.19-1.69-.38-3.24-1.04-4.82-1.69-.45-.18-.89-.36-1.34-.54-1.14-.46-2.29-.93-3.52-1.3-.44-.13-.87-.26-1.39-.35-.24-.05-.55-.07-.87-.07-.29,0-.48.01-.71.03-.89.05-1.75.15-2.6.23-1.69.17-3.41.41-4.94.46-1.52.06-3.12-.19-4.89-.34l-1.3-.1-.65-.04h-.74c-1,0-1.99.22-2.84.49-1.7.52-3.21,1.08-4.86,1.5-1.63.46-3.3.8-4.99,1.22,1.72.28,3.46.35,5.22.31,1.74-.06,3.55-.35,5.17-.63Z"/>
        <path class="cls-16" d="m236.53,108.13c.35-.29.69-.58,1-.87l.07-.06c.09.05.17.1.26.15.42.22.84.44,1.27.65.43.21.87.41,1.33.61.47.2.92.42,1.48.68.06-.62-.13-1.19-.34-1.74-.23-.54-.55-1.02-.9-1.46-.35-.44-.75-.82-1.17-1.18-.43-.35-.85-.65-1.38-.93l-.97-.52-.76.69c-.5.46-.77.81-1.07,1.26-.29.42-.52.88-.73,1.34-.38.94-.63,1.94-.55,3.06.51-.25.92-.54,1.33-.82.41-.28.77-.57,1.13-.86Z"/>
      </g>
      <g>
        <path class="cls-15" d="m453.17,283.37h-33.34c-15.36,79.78-85.56,140.06-169.83,140.06s-154.48-60.27-169.84-140.06h-44.7c.41,2.64.85,5.26,1.36,7.88.05.27.1.54.15.79,12.14,62.66,51.25,115.68,104.76,146.55,31.11,17.94,67.08,28.38,105.46,28.88.6,0,1.21.01,1.82.01h.98c11.84,0,23.45-.94,34.78-2.78.32-.04.64-.09.97-.15,9.84-1.63,19.45-3.92,28.79-6.83.59-.18,1.16-.36,1.75-.55,1.04-.33,2.09-.68,3.12-1.03.06-.03.14-.05.2-.06,75.67-25.6,132.62-91.81,144.93-172.69h-9.39"/>
        <g>
          <path class="cls-3" d="m464.19,283.37c-10.49,68.53-53.07,128.22-115.33,160.19-9.52,4.88-19.27,9.07-29.26,12.5-.06.01-.14.04-.2.06-1.03.36-2.08.7-3.12,1.03-.59.19-1.16.37-1.75.55-.84.28-1.69.55-2.55.8-.23.08-.46.14-.69.2-.84.25-1.67.5-2.51.73-.65.18-1.3.36-1.95.54-1.72.47-3.45.92-5.2,1.34-.88.22-1.75.42-2.62.62-1.75.41-3.5.79-5.28,1.15-.71.15-1.44.29-2.17.42-.17.04-.32.08-.48.1-.87.17-1.73.32-2.6.47-.9.17-1.82.32-2.74.46-.33.06-.65.11-.97.15-1.25.2-2.5.38-3.75.55-10.84,1.45-21.51,2.2-32.01,2.23-.61,0-1.22,0-1.82-.01-.37.01-.73,0-1.1,0h-.08c-5.7-.06-11.34-.34-16.94-.84-2.08-.18-4.14-.4-6.19-.64-.68-.08-1.34-.15-2-.24-.33-.04-.66-.09-.99-.13-.76-.1-1.54-.2-2.31-.32-.09-.01-.18-.03-.25-.04-.9-.13-1.81-.27-2.73-.41-2.05-.32-4.09-.68-6.13-1.06-1.76-.33-3.52-.69-5.28-1.07-.94-.2-1.89-.42-2.83-.64-1.27-.28-2.54-.59-3.8-.92-2.48-.61-4.96-1.29-7.42-2-.75-.22-1.5-.43-2.26-.68-1.72-.51-3.43-1.06-5.15-1.63-1.1-.36-2.18-.73-3.28-1.12-2.88-1.01-5.73-2.08-8.59-3.24-.79-.31-1.58-.62-2.36-.96-3.72-1.54-7.42-3.2-11.07-4.98-.89-.42-1.77-.87-2.66-1.31-.88-.43-1.77-.89-2.65-1.35-.87-.45-1.73-.9-2.6-1.38-.7-.36-1.39-.74-2.09-1.12-1.03-.56-2.06-1.15-3.1-1.73-.9-.51-1.8-1.03-2.7-1.57.28.14.56.27.84.38.08.04.15.08.23.1,12.44,5.65,25.19,9.98,38.27,13.02,9.58,2.24,19.34,3.8,29.26,4.66,16.86,1.5,34.19,1.02,51.94-1.38,2.5-.34,5-.71,7.47-1.16,21.1-3.67,41.2-10.68,60.36-20.52,59.12-30.35,100.47-85.68,113.5-149.85"/>
          <g class="cls-4">
            <path class="cls-14" d="m460.05,283.37c-15.85,101.8-104.12,179.96-210.31,179.96-24.4,0-47.88-4.13-69.73-11.72-5.21-1.81-10.32-3.82-15.33-6.01-8.64-3.77-16.99-8.1-24.99-12.97-52.64-31.93-90.41-86.04-100.26-149.25h-3.85c.37,2.64.79,5.26,1.25,7.88.05.27.1.54.15.79.13.73.25,1.44.4,2.17,1.53,7.88,3.52,15.65,6,23.32,14.87,45.88,42.17,82.84,81.57,110.46,5.17,3.63,10.42,7.01,15.73,10.12.9.54,1.8,1.06,2.7,1.57,1.03.59,2.06,1.17,3.1,1.73.7.38,1.39.76,2.09,1.12.87.47,1.73.93,2.6,1.38.88.46,1.77.92,2.65,1.35.89.45,1.77.89,2.66,1.31,3.66,1.78,7.35,3.44,11.07,4.98.78.33,1.57.65,2.36.96,2.85,1.16,5.71,2.23,8.59,3.24,1.1.4,2.18.76,3.28,1.12,1.72.57,3.43,1.12,5.15,1.63.75.24,1.5.46,2.26.68,2.46.73,4.93,1.39,7.42,2,1.26.33,2.52.64,3.8.92.94.22,1.89.43,2.83.64,1.76.38,3.52.74,5.28,1.07,2.04.38,4.08.74,6.13,1.06.92.14,1.82.28,2.73.41.08.01.17.03.25.04.76.11,1.54.22,2.31.32.33.04.66.09.99.13.66.09,1.33.17,2,.24,2.05.24,4.12.46,6.19.64,5.59.5,11.24.78,16.94.84h.08c.37,0,.73.01,1.1,0,.6.01,1.21.01,1.82.01,10.5-.03,21.17-.78,32.01-2.23,1.25-.17,2.5-.34,3.75-.55.32-.04.64-.09.97-.15.92-.14,1.84-.29,2.74-.46.87-.15,1.73-.31,2.6-.47.17-.03.32-.06.48-.1.73-.13,1.45-.27,2.17-.42,1.77-.36,3.53-.74,5.28-1.15.88-.2,1.75-.41,2.62-.62,1.75-.42,3.48-.87,5.2-1.34.65-.18,1.3-.36,1.95-.54.84-.23,1.67-.47,2.51-.73.23-.06.46-.13.69-.2.85-.25,1.71-.52,2.55-.8.59-.18,1.16-.36,1.75-.55,1.04-.33,2.09-.68,3.12-1.03.06-.03.14-.05.2-.06,9.99-3.43,19.74-7.62,29.26-12.5,62.25-31.97,104.84-91.66,115.33-160.19h-4.14Z"/>
          </g>
          <path class="cls-13" d="m111.79,377.39s-13.03-19.66-26.52-30.35c-13.49-10.69-21.01-22.07-23.63-17.24-2.62,4.83,24.84,46.3,38.01,60.05,13.17,13.75,25.95,5.45,12.13-12.46Z"/>
        </g>
        <path class="cls-7" d="m419.83,283.37c-15.36,79.78-85.56,140.06-169.83,140.06s-154.48-60.27-169.84-140.06"/>
        <path class="cls-5" d="m464.56,283.37c-3.07,20.2-8.95,39.47-17.19,57.44-.01.03-.03.06-.04.09-.99,2.16-2.02,4.3-3.08,6.41-.06.11-.11.23-.17.34-1.03,2.05-2.1,4.09-3.19,6.1-.09.17-.18.34-.28.52-1.07,1.97-2.18,3.91-3.31,5.84-.12.21-.25.42-.37.64-1.12,1.89-2.26,3.76-3.44,5.61-.15.24-.3.49-.46.73-1.16,1.82-2.35,3.62-3.57,5.4-.18.26-.36.52-.54.79-1.21,1.76-2.44,3.49-3.7,5.21-.2.27-.4.55-.6.82-1.26,1.7-2.54,3.38-3.84,5.04-.22.28-.44.56-.66.83-1.3,1.65-2.63,3.27-3.98,4.88-.23.28-.47.55-.7.83-1.36,1.6-2.73,3.17-4.14,4.73-.24.27-.48.53-.72.8-1.41,1.55-2.84,3.08-4.3,4.59-.25.26-.49.51-.74.76-1.47,1.51-2.95,3-4.47,4.46-.24.24-.49.47-.73.7-1.53,1.47-3.08,2.92-4.65,4.35-.23.21-.47.42-.7.63-1.6,1.44-3.21,2.85-4.85,4.24-.21.18-.43.36-.65.54-1.67,1.41-3.37,2.79-5.08,4.15-.18.14-.36.28-.54.42-1.76,1.38-3.54,2.74-5.35,4.07-.13.09-.26.19-.39.28-1.87,1.37-3.75,2.71-5.67,4.02-.05.03-.1.06-.14.1-16.85,11.52-35.4,20.72-55.2,27.15-.28.09-.56.19-.85.28-.59.19-1.16.37-1.75.55-.84.28-1.69.55-2.55.8-.23.08-.46.14-.69.2-.84.25-1.67.5-2.51.73-.65.18-1.3.36-1.95.54-1.72.47-3.45.92-5.2,1.34-.88.22-1.75.42-2.62.62-1.75.41-3.5.79-5.28,1.15-.71.15-1.44.29-2.17.42-.17.04-.32.08-.48.1-.87.17-1.73.32-2.6.47-.14.03-.28.05-.42.07-12.36,2.19-25.08,3.34-38.06,3.34-1.3,0-2.6-.01-3.9-.04h-.08c-38.03-.68-73.67-11.14-104.52-28.98-52.79-30.53-91.52-82.64-104.14-144.28-.74-3.58-1.38-7.19-1.94-10.83"/>
        <path class="cls-5" d="m419.83,283.37c-15.36,79.78-85.56,140.06-169.83,140.06s-154.48-60.27-169.84-140.06"/>
        <g>
          <path d="m170.32,438.95c-9.63-3.15-19.08-6.71-27.65-12.27-.24-.15-.54-.21-.85-.25-.32-.03-.65-.04-.95-.1.3.51.59,1.03.92,1.52.11.16.32.25.49.36,6.34,4.28,13.25,7.44,20.45,9.92,4.65,1.61,9.4,2.91,14.13,4.29.71.21,1.53.03,2.3.03.04-.2.08-.4.13-.6-.57-.27-1.12-.6-1.72-.78-2.41-.73-4.85-1.34-7.24-2.12Z"/>
          <path d="m130.98,417.7c.17.1.46.01,1.2.01-.72-.93-1.19-1.59-1.71-2.21-1.27-1.52-2.55-3.03-3.87-4.51-.28-.32-.76-.46-1.16-.68-.06.47-.3,1-.16,1.39,1.02,2.81,3.23,4.53,5.69,5.99Z"/>
        </g>
        <g>
          <path d="m440.9,311.76c3.18-1.34,5.9-3.3,7.95-6.1.11-.15.13-.35.13-.58,0-.23-.03-.47-.01-.68-.11.03-.23.05-.35.07-.36.06-.72.1-.97.29-2.31,1.78-4.58,3.61-6.84,5.45-.41.34-.74.78-1.1,1.18.07.13.14.26.2.39.33,0,.71.1.99-.02Z"/>
          <path d="m448.97,304.4c-.11.03-.23.05-.35.07.12-.02.24-.04.35-.07h0Z"/>
          <path d="m445.46,300.68c1.53-1.19,3.02-2.43,4.42-3.78.76-.73,1.34-1.66,1.89-2.58.17-.28-.03-.79-.08-1.4-.47.28-.67.36-.81.49-2.18,2-4.36,3.99-6.5,6.04-.29.28-.29.87-.42,1.32.51-.02,1.17.15,1.5-.1Z"/>
        </g>
      </g>
    </g>
  </g>
</svg>